<?xml version="1.0" encoding="utf-8"?>
<!-- Generator: Adobe Illustrator 18.1.0, SVG Export Plug-In . SVG Version: 6.00 Build 0)  -->
<!DOCTYPE svg PUBLIC "-//W3C//DTD SVG 1.1//EN" "http://www.w3.org/Graphics/SVG/1.1/DTD/svg11.dtd">
<svg version="1.1" id="Layer_1" xmlns="http://www.w3.org/2000/svg" xmlns:xlink="http://www.w3.org/1999/xlink" x="0px" y="0px"
	 viewBox="0 0 283.5 283.5" enable-background="new 0 0 283.5 283.5" xml:space="preserve">
<path d="M0,0v283.5h283.5V0H0z M228.1,215.5c-23.5,32.9-54.2,51-86.4,51c-32.2,0-62.9-18.1-86.4-51C30.6,180.8,17,134.5,17,85
	C17,47.5,44.3,17,78,17c14.5,0,28.5,5.9,39.4,16.2c13.7,12.8,35,12.8,48.7,0c0.1-0.1,0.2-0.2,0.3-0.3c0,0,0,0,0,0l0,0
	C177.3,22.8,191.1,17,205.5,17c33.6,0,60.9,30.5,60.9,68C266.5,134.5,252.8,180.8,228.1,215.5z"/>
<path fill="#F39200" d="M159.5,23.6c1,1.3,2.8,1.5,4.1,0.5c11.9-10,26.7-15.6,42-15.6c37.5,0,68.1,32.9,69.4,73.8
	c0,1.5,1.3,2.7,2.8,2.7h2.8c1.6,0,2.9-1.3,2.8-2.9C282,36.5,247.7,0,205.5,0c-17.8,0-34.2,6.5-47.3,17.5c-1.2,1-1.4,2.7-0.5,3.9
	L159.5,23.6z"/>
<path fill="#F39200" d="M262.9,170.1c-1.2,0-2.3,0.8-2.7,1.9c-6.4,17.7-14.9,34-25.2,48.5c-25.1,35.2-58.3,54.6-93.3,54.6
	c-35,0-68.2-19.4-93.3-54.6C38.1,206,29.7,189.6,23.3,172c-0.4-1.1-1.5-1.9-2.7-1.9h-3c-2,0-3.3,2-2.7,3.8
	c23.3,65,71.3,109.6,126.8,109.6c55.5,0,103.5-44.6,126.8-109.6c0.7-1.9-0.7-3.8-2.7-3.8H262.9z"/>
<path fill="#F39200" d="M78,8.5c15.3,0,30,5.6,42,15.6c1.2,1,3.1,0.8,4.1-0.5l1.7-2.3c0.9-1.2,0.7-2.9-0.5-3.9
	C112.1,6.5,95.7,0,78,0C35.8,0,1.5,36.5,0,82.1C0,83.7,1.3,85,2.9,85h2.8c1.5,0,2.8-1.2,2.8-2.7C9.9,41.4,40.5,8.5,78,8.5z"/>
<polyline fill="none" points="117,32.9 141.7,42.5 166.4,32.9 "/>
</svg>
