<?xml version="1.0" encoding="utf-8"?>
<!-- Generator: Adobe Illustrator 16.0.0, SVG Export Plug-In . SVG Version: 6.00 Build 0)  -->
<!DOCTYPE svg PUBLIC "-//W3C//DTD SVG 1.1//EN" "http://www.w3.org/Graphics/SVG/1.1/DTD/svg11.dtd">
<svg version="1.1" id="Dates_Index" xmlns="http://www.w3.org/2000/svg" xmlns:xlink="http://www.w3.org/1999/xlink" x="0px"
	 y="0px" width="1247.24px" height="1247.24px" viewBox="0 0 1247.24 1247.24" enable-background="new 0 0 1247.24 1247.24"
	 xml:space="preserve">
<circle fill="#1A1A1A" stroke="#000000" stroke-miterlimit="10" cx="623.622" cy="623.622" r="623.622"/>
<g>
	<path fill="#E6E6E6" d="M621.321,1217.711c0,5-4.8,8.391-10.801,8.391c-5.953,0-10.849-3.391-11.329-7.754h3.648
		c0.48,2.627,3.84,4.66,7.681,4.66c4.512,0,7.2-2.33,7.2-5.211c0-2.84-2.832-5.34-6.864-5.34h-3.648v-2.924h3.216
		c3.312,0,6.241-1.865,6.241-4.576c0-2.67-2.161-4.492-6.337-4.492c-3.888,0-6.336,1.822-6.769,3.984h-3.504
		c0.432-3.434,3.984-7.078,10.177-7.078c6.24,0,10.033,3.094,10.033,7.459c0,2.797-2.64,5.381-4.8,5.975
		C619.161,1212.033,621.321,1214.703,621.321,1217.711z"/>
	<path fill="#E6E6E6" d="M640.424,1197.711v28.051h-3.601v-25h-6.721v-3.051H640.424z"/>
</g>
<g>
	<path fill="#E6E6E6" d="M740.956,1206.014c1.007,4.897-3.013,9.185-8.891,10.393c-5.83,1.198-11.309-1.137-12.658-5.315
		l3.574-0.734c0.999,2.477,4.7,3.793,8.462,3.021c4.42-0.908,6.583-3.734,6.003-6.556c-0.571-2.782-3.849-4.66-7.798-3.849
		l-3.574,0.734l-0.588-2.864l3.15-0.647c3.244-0.666,5.737-3.082,5.191-5.738c-0.537-2.614-3.021-3.965-7.111-3.124
		c-3.809,0.783-5.84,3.061-5.828,5.265l-3.433,0.706c-0.268-3.449,2.479-7.734,8.544-8.981c6.113-1.256,10.45,1.011,11.329,5.286
		c0.563,2.739-1.503,5.803-3.499,6.817C737.697,1200.887,740.351,1203.066,740.956,1206.014z"/>
	<path fill="#E6E6E6" d="M765.848,1194.799c1.886,9.173-0.682,14.805-8.018,16.312c-7.335,1.507-11.915-2.656-13.801-11.829
		c-1.885-9.174,0.683-14.806,8.018-16.312C760.631,1181.335,764.372,1187.618,765.848,1194.799z M762.321,1195.523
		c-1.51-7.347-4.479-10.587-9.651-9.523c-5.172,1.062-6.623,5.211-5.113,12.558s4.479,10.587,9.651,9.524
		C763.577,1206.642,763.371,1200.629,762.321,1195.523z"/>
</g>
<g>
	<path fill="#E6E6E6" d="M841.836,1181.901l15.704-6.739l1.203,2.804l-19.63,8.425l-0.686-1.597
		c-3.275-7.633,11.731-17.945,9.191-23.864c-1.286-2.998-4.41-3.825-8.645-2.008c-3.883,1.666-5.8,4.379-5.004,7.45l-3.31,1.42
		c-1.419-4.648,1.623-9.366,7.005-11.675c6.309-2.707,11.39-0.969,13.229,3.314C853.985,1166.636,840.41,1177.118,841.836,1181.901z
		"/>
	<path fill="#E6E6E6" d="M860.844,1169.964l3.706-1.59c1.336,1.409,3.428,2.633,6.736,1.213c5.426-2.328,5.775-7.966,3.269-13.807
		c-0.492,2.747-2.796,5.533-6.061,6.935c-5.515,2.366-11.413,0.793-13.519-4.112c-2.072-4.828,0.951-10.322,6.465-12.688
		c7.103-3.048,12.847,0.113,16.473,8.562c3.492,8.139,1.959,14.791-5.407,17.952
		C866.903,1174.833,862.914,1172.719,860.844,1169.964z M871.866,1151.584c-1.47-3.426-5.411-4.455-9.205-2.827
		c-3.706,1.59-5.764,5.194-4.377,8.426c1.37,3.192,5.45,4.302,9.156,2.712C871.146,1158.304,873.237,1154.777,871.866,1151.584z"/>
</g>
<g>
	<path fill="#E6E6E6" d="M949.75,1126.547l14.027-9.762l1.742,2.504l-17.533,12.203l-0.992-1.426
		c-4.746-6.817,7.879-19.939,4.199-25.227c-1.863-2.678-5.09-2.859-8.871-0.227c-3.469,2.414-4.801,5.457-3.402,8.305l-2.955,2.058
		c-2.326-4.267-0.297-9.501,4.51-12.847c5.635-3.921,10.963-3.242,13.625,0.584C958.578,1109.148,947.391,1122.148,949.75,1126.547z
		"/>
	<path fill="#E6E6E6" d="M983.18,1097.188c2.832,4.069,1.404,9.245-4.545,13.387c-5.949,4.141-11.299,3.682-14.131-0.388
		c-1.84-2.644-1.555-6.352,0.791-9.534c-2.121,0.65-5.432,0.683-7.344-2.064c-2.396-3.443-1.088-7.865,4.27-11.594
		c5.359-3.73,9.961-3.422,12.357,0.021c1.912,2.746,0.73,5.842-0.615,7.604C977.764,1093.523,981.34,1094.545,983.18,1097.188z
		 M968.854,1096.523c2.443-1.701,4.633-4.773,2.865-7.312c-1.525-2.191-4.602-1.907-7.754,0.287
		c-3.152,2.193-4.488,4.98-2.963,7.172C962.77,1099.209,966.412,1098.223,968.854,1096.523z M980.199,1099.209
		c-2.082-2.99-6.168-2.728-9.674-0.287c-3.508,2.441-5.174,6.182-3.092,9.173c1.889,2.714,5.557,2.689,9.457-0.025
		S982.088,1101.923,980.199,1099.209z"/>
</g>
<g>
	<path fill="#E6E6E6" d="M1044.312,1050.604l11.773-12.386l2.211,2.103l-14.719,15.482l-1.258-1.197
		c-6.02-5.723,3.703-21.117-0.965-25.555c-2.365-2.248-5.561-1.775-8.736,1.564c-2.91,3.062-3.602,6.311-1.66,8.819l-2.48,2.61
		c-3.139-3.712-2.203-9.247,1.832-13.492c4.73-4.975,10.086-5.382,13.465-2.17
		C1049.457,1031.783,1041.115,1046.77,1044.312,1050.604z"/>
	<path fill="#E6E6E6" d="M1056.451,1001.546l2.611,2.481l8.592,26.447l-2.877,3.027l-8.66-27.175l-12.635,13.291l-2.211-2.103
		L1056.451,1001.546z"/>
</g>
<g>
	<path fill="#E6E6E6" d="M1121.65,957.18l9.039-14.504l2.59,1.614l-11.301,18.129l-1.475-0.919
		c-7.047-4.393-0.621-21.431-6.088-24.838c-2.77-1.726-5.805-0.62-8.242,3.291c-2.234,3.585-2.258,6.908,0.148,8.974l-1.904,3.056
		c-3.82-3.004-4.018-8.614-0.92-13.584c3.631-5.826,8.795-7.303,12.75-4.837C1122.9,937.709,1117.748,954.068,1121.65,957.18z"/>
	<path fill="#E6E6E6" d="M1128.977,910.5l-2.133,3.422c-1.902-0.394-4.318-0.201-6.223,2.854c-3.123,5.012-0.191,9.837,5.203,13.199
		c-1.166-2.537-0.867-6.141,1.012-9.154c3.176-5.093,8.914-7.172,13.445-4.348c4.461,2.779,5.117,9.016,1.941,14.107
		c-4.088,6.559-10.607,7.246-18.41,2.383c-7.516-4.685-10.059-11.021-5.818-17.824
		C1121.221,909.965,1125.703,909.422,1128.977,910.5z M1130.428,931.882c3.164,1.974,6.988,0.565,9.172-2.938
		c2.133-3.423,1.764-7.556-1.223-9.417c-2.949-1.838-6.93-0.416-9.062,3.006S1127.479,930.044,1130.428,931.882z"/>
</g>
<g>
	<path fill="#E6E6E6" d="M1178.6,850.099l5.936-16.025l2.861,1.06l-7.419,20.031l-1.63-0.603
		c-7.788-2.885-4.923-20.866-10.964-23.104c-3.06-1.133-5.811,0.561-7.411,4.882c-1.468,3.962-0.821,7.221,1.952,8.76l-1.25,3.377
		c-4.348-2.174-5.67-7.629-3.637-13.121c2.385-6.437,7.146-8.922,11.517-7.304C1175.906,830.775,1174.15,847.836,1178.6,850.099z"/>
	<path fill="#E6E6E6" d="M1188.224,807.031c4.849,1.795,7.125,7.604,5.041,13.231c-2.834,7.652-7.946,8.523-10.882,8.153
		l1.284-3.467c2.197,0.046,5.014-1.214,6.647-5.626c1.501-4.052-0.083-7.709-3.341-8.916c-3.496-1.295-6.858,0.583-8.309,4.5
		c-0.983,2.655-0.729,5.259-0.078,6.677l-2.818,2.487l-11.729-6.646l5.752-15.531l2.862,1.06l-4.618,12.471l7.129,4.176
		c-0.255-1.631,0.052-3.923,0.719-5.723C1178.117,807.844,1183.178,805.162,1188.224,807.031z"/>
</g>
<g>
	<path fill="#E6E6E6" d="M1212.828,733.746l2.588-16.893l3.016,0.463l-3.234,21.115l-1.717-0.264
		c-8.211-1.258-9.023-19.447-15.391-20.423c-3.227-0.494-5.578,1.719-6.277,6.274c-0.639,4.176,0.648,7.238,3.676,8.188
		l-0.545,3.559c-4.695-1.254-7.09-6.331-6.203-12.12c1.039-6.785,5.203-10.179,9.811-9.473
		C1206.301,715.36,1208.016,732.426,1212.828,733.746z"/>
	<path fill="#E6E6E6" d="M1212.646,689.042l2.807,0.43l-0.646,4.224l7.078,1.084l-0.545,3.559l-7.078-1.084l-2.297,14.994
		l-3.059-0.469l-15.572-15.886l0.822-5.362l17.844,2.734L1212.646,689.042z M1211.455,696.824l-15.164-2.322l13.375,13.994
		L1211.455,696.824z"/>
</g>
<g>
	<path fill="#E6E6E6" d="M1222.936,612.886l-0.867-17.067l3.047-0.154l1.082,21.335l-1.734,0.088
		c-8.295,0.42-12.754-17.234-19.188-16.908c-3.258,0.165-5.117,2.808-4.885,7.41c0.215,4.219,2.094,6.959,5.25,7.279l0.182,3.596
		c-4.852-0.282-8.219-4.773-8.516-10.623c-0.348-6.855,3.047-11.018,7.701-11.253
		C1212.838,596.19,1217.953,612.562,1222.936,612.886z"/>
	<path fill="#E6E6E6" d="M1215.727,569.467c4.994-0.254,8.621,4.369,8.926,10.361c0.301,5.945-2.836,11.007-7.17,11.708
		l-0.186-3.645c2.6-0.612,4.461-4.071,4.268-7.907c-0.229-4.506-2.693-7.072-5.572-6.927c-2.836,0.144-5.189,3.1-4.984,7.126
		l0.186,3.645l-2.92,0.147l-0.164-3.212c-0.168-3.309-2.178-6.139-4.887-6.001c-2.664,0.135-4.375,2.386-4.164,6.557
		c0.197,3.883,2.143,6.235,4.322,6.558l0.178,3.5c-3.451-0.258-7.271-3.621-7.584-9.806c-0.316-6.232,2.582-10.177,6.939-10.397
		c2.795-0.142,5.508,2.364,6.211,4.491C1210.164,571.911,1212.721,569.619,1215.727,569.467z"/>
</g>
<g>
	<path fill="#E6E6E6" d="M1208.506,492.466l-4.284-16.544l2.953-0.765l5.354,20.68l-1.682,0.436
		c-8.041,2.082-15.961-14.313-22.197-12.699c-3.158,0.817-4.449,3.78-3.293,8.241c1.059,4.09,3.45,6.396,6.606,6.074l0.902,3.486
		c-4.81,0.699-9.013-3.022-10.48-8.692c-1.721-6.646,0.769-11.405,5.28-12.573C1195.256,478.145,1203.561,493.15,1208.506,492.466z"
		/>
	<path fill="#E6E6E6" d="M1201.889,466.909l-4.283-16.544l2.953-0.765l5.354,20.68l-1.682,0.436
		c-8.041,2.082-15.961-14.313-22.197-12.699c-3.158,0.817-4.448,3.78-3.293,8.241c1.059,4.09,3.45,6.396,6.606,6.074l0.902,3.486
		c-4.81,0.699-9.013-3.022-10.48-8.692c-1.72-6.646,0.769-11.405,5.28-12.573C1188.639,452.588,1196.944,467.594,1201.889,466.909z"
		/>
</g>
<g>
	<path fill="#E6E6E6" d="M1170.131,377.414l-7.526-15.342l2.738-1.344l9.408,19.179l-1.56,0.765
		c-7.457,3.658-18.517-10.808-24.3-7.971c-2.929,1.437-3.597,4.598-1.566,8.735c1.86,3.793,4.667,5.57,7.694,4.62l1.585,3.232
		c-4.57,1.653-9.437-1.146-12.015-6.404c-3.023-6.162-1.545-11.326,2.641-13.379
		C1154.269,366.054,1165.426,379.081,1170.131,377.414z"/>
	<path fill="#E6E6E6" d="M1131.641,355.716l25.184-12.354l1.586,3.232l-22.445,11.01l2.96,6.033l-2.739,1.345L1131.641,355.716z"/>
</g>
<g>
	<path fill="#E6E6E6" d="M1109.382,272.443l-10.461-13.514l2.413-1.867l13.075,16.893l-1.374,1.062
		c-6.568,5.084-20.312-6.858-25.406-2.916c-2.58,1.998-2.598,5.229,0.224,8.873c2.586,3.34,5.693,4.516,8.467,2.977l2.204,2.847
		c-4.145,2.54-9.474,0.776-13.059-3.854c-4.201-5.428-3.793-10.783-0.107-13.637
		C1091.558,264.508,1105.107,275.023,1109.382,272.443z"/>
	<path fill="#E6E6E6" d="M1073.789,244.392c7.406-5.731,13.592-5.907,18.176,0.015s2.863,11.867-4.541,17.6
		c-7.406,5.732-13.594,5.908-18.177-0.015C1063.999,255.005,1067.992,248.879,1073.789,244.392z M1075.993,247.238
		c-5.931,4.592-7.532,8.684-4.3,12.859s7.596,3.651,13.525-0.939c5.932-4.591,7.533-8.684,4.301-12.859
		C1085.423,241.215,1080.115,244.049,1075.993,247.238z"/>
</g>
<g>
	<path fill="#E6E6E6" d="M1004.848,194.285L1023.12,173l2.731,2.346l-16.284,18.969l5.1,4.378l-1.987,2.315L1004.848,194.285z"/>
	<path fill="#E6E6E6" d="M1009.656,170.043l-3.06-2.627c0.677-1.82,0.854-4.237-1.878-6.582c-4.479-3.846-9.695-1.678-13.834,3.145
		c2.683-0.768,6.199,0.074,8.895,2.389c4.553,3.908,5.738,9.896,2.262,13.947c-3.423,3.986-9.687,3.691-14.239-0.217
		c-5.864-5.034-5.556-11.583,0.434-18.561c5.769-6.719,12.416-8.271,18.499-3.051
		C1011.359,162.458,1011.218,166.971,1009.656,170.043z M988.301,168.24c-2.428,2.829-1.616,6.82,1.516,9.51
		c3.061,2.627,7.201,2.888,9.492,0.219c2.264-2.636,1.462-6.787-1.598-9.414S990.564,165.604,988.301,168.24z"/>
</g>
<g>
	<path fill="#E6E6E6" d="M910.619,126.332l13.613-24.527l3.148,1.747l-12.133,21.858l5.876,3.262l-1.481,2.668L910.619,126.332z"/>
	<path fill="#E6E6E6" d="M890.443,92.258c2.406-4.334,7.682-5.332,14.02-1.814c6.338,3.519,8.281,8.523,5.875,12.857
		c-1.562,2.815-5.017,4.193-8.908,3.488c1.519,1.617,3.006,4.576,1.381,7.502c-2.035,3.668-6.582,4.441-12.291,1.272
		c-5.707-3.168-7.457-7.436-5.421-11.104c1.624-2.927,4.922-3.229,7.098-2.796C889.539,98.734,888.881,95.074,890.443,92.258z
		 M896.154,105.412c-2.602-1.444-6.324-2.058-7.826,0.647c-1.295,2.334,0.314,4.973,3.673,6.837c3.358,1.863,6.448,1.834,7.744-0.5
		C901.246,109.691,898.757,106.856,896.154,105.412z M893.57,94.043c-1.768,3.186,0.268,6.739,4.004,8.812
		c3.735,2.073,7.828,1.921,9.596-1.265c1.604-2.89-0.033-6.173-4.188-8.479C898.826,90.805,895.175,91.152,893.57,94.043z"/>
</g>
<g>
	<path fill="#E6E6E6" d="M804.641,78.739l8.397-26.766l3.436,1.078l-7.484,23.854l6.412,2.012l-0.913,2.912L804.641,78.739z"/>
	<path fill="#E6E6E6" d="M772.307,68.595l1.078-3.438l19.961-19.362l3.984,1.25l-20.583,19.744l17.496,5.489l-0.913,2.912
		L772.307,68.595z"/>
</g>
<g>
	<path fill="#E6E6E6" d="M691.252,53.454l2.838-27.907l3.582,0.364l-2.529,24.871l6.686,0.68l-0.309,3.036L691.252,53.454z"/>
	<path fill="#E6E6E6" d="M658.628,43.577l4.012,0.408c0.483,1.88,1.72,3.966,5.302,4.329c5.873,0.598,8.915-4.161,9.559-10.484
		c-1.765,2.163-5.132,3.481-8.666,3.122c-5.97-0.606-10.363-4.845-9.823-10.155c0.532-5.229,5.841-8.564,11.811-7.958
		c7.688,0.782,11.178,6.334,10.247,15.481c-0.896,8.811-5.465,13.884-13.44,13.072C661.562,50.776,659.101,46.99,658.628,43.577z
		 M677.185,32.856c0.378-3.71-2.569-6.522-6.677-6.94c-4.012-0.407-7.56,1.744-7.916,5.244c-0.352,3.457,2.679,6.406,6.69,6.813
		C673.293,38.382,676.833,36.313,677.185,32.856z"/>
</g>
<g>
	<path fill="#E6E6E6" d="M575.094,51.512l-2.839-27.908l3.582-0.364l2.529,24.872l6.687-0.68l0.309,3.036L575.094,51.512z"/>
	<path fill="#E6E6E6" d="M539.641,35.95c-0.523-5.144,3.689-9.746,9.659-10.353c8.119-0.826,11.152,3.38,12.112,6.179l-3.677,0.374
		c-0.927-1.992-3.299-3.966-7.979-3.49c-4.298,0.437-6.884,3.469-6.532,6.926c0.377,3.709,3.543,5.9,7.697,5.478
		c2.817-0.287,5.042-1.662,6.029-2.87l3.476,1.436l-0.803,13.456l-16.477,1.676l-0.31-3.036l13.229-1.346l0.609-8.239
		c-1.352,0.946-3.544,1.682-5.454,1.876C544.822,44.667,540.186,41.304,539.641,35.95z"/>
</g>
<g>
	<path fill="#E6E6E6" d="M460.922,72.991l-8.396-26.765l3.435-1.078l7.483,23.854l6.412-2.012l0.914,2.911L460.922,72.991z"/>
	<path fill="#E6E6E6" d="M422.955,65.984l-0.85-2.708l4.076-1.279l-2.144-6.833l3.436-1.078l2.144,6.833l14.474-4.541l0.926,2.951
		l-7.405,20.976l-5.176,1.624l-5.404-17.224L422.955,65.984z M430.467,63.627l4.593,14.637l6.675-18.172L430.467,63.627z"/>
</g>
<g>
	<path fill="#E6E6E6" d="M353.41,117.014l-13.613-24.526l3.148-1.747l12.132,21.858l5.876-3.261l1.481,2.668L353.41,117.014z"/>
	<path fill="#E6E6E6" d="M314.242,115.879c-2.427-4.371,0.125-9.665,5.372-12.577c5.204-2.889,11.131-2.301,13.669,1.282
		l-3.19,1.771c-1.694-2.064-5.62-2.212-8.978-0.348c-3.945,2.189-5.164,5.532-3.766,8.051c1.378,2.482,5.066,3.294,8.592,1.338
		l3.19-1.771l1.419,2.557l-2.812,1.561c-2.896,1.607-4.551,4.658-3.234,7.029c1.295,2.334,4.068,2.878,7.719,0.852
		c3.4-1.887,4.656-4.668,3.985-6.768l3.064-1.701c1.288,3.211-0.05,8.122-5.464,11.127c-5.457,3.029-10.273,2.164-12.392-1.652
		c-1.357-2.445-0.304-5.987,1.298-7.554C318.887,119.796,315.702,118.51,314.242,115.879z"/>
</g>
<g>
	<path fill="#E6E6E6" d="M256.962,181.779l-18.272-21.284l2.732-2.345l16.283,18.969l5.1-4.377l1.988,2.315L256.962,181.779z"/>
	<path fill="#E6E6E6" d="M228.258,173.47l-12.967,11.132l-1.986-2.314l16.209-13.915l1.131,1.318
		c5.41,6.302-5.821,20.634-1.625,25.521c2.125,2.476,5.352,2.329,8.849-0.672c3.206-2.752,4.223-5.915,2.544-8.606l2.732-2.346
		c2.746,4.01,1.256,9.422-3.188,13.237c-5.209,4.472-10.578,4.334-13.615,0.797C221.236,191.673,231.051,177.607,228.258,173.47z"/>
</g>
<g>
	<path fill="#E6E6E6" d="M175.524,264.632l-22.183-17.171l2.203-2.847l19.77,15.303l4.114-5.314l2.413,1.868L175.524,264.632z"/>
	<path fill="#E6E6E6" d="M159.365,285.508l-22.183-17.171l2.204-2.847l19.77,15.303l4.113-5.315l2.413,1.868L159.365,285.508z"/>
</g>
<g>
	<path fill="#E6E6E6" d="M112.433,362.182l-25.185-12.354l1.585-3.232l22.444,11.01l2.96-6.034l2.74,1.344L112.433,362.182z"/>
	<path fill="#E6E6E6" d="M84.895,386.473c-8.408-4.124-11.29-9.602-7.992-16.325c3.299-6.723,9.394-7.797,17.801-3.673
		c8.408,4.125,11.291,9.603,7.993,16.325C98.734,390.588,91.477,389.701,84.895,386.473z M86.479,383.24
		c6.733,3.303,11.113,2.938,13.438-1.803c2.326-4.74-0.066-8.427-6.801-11.73c-6.732-3.303-11.113-2.938-13.438,1.802
		C76.919,377.428,81.801,380.945,86.479,383.24z"/>
</g>
<g>
	<path fill="#E6E6E6" d="M49.695,464.016l-1.011,3.903c-1.933,0.194-4.181,1.1-5.083,4.585c-1.48,5.716,2.764,9.443,8.916,11.036
		c-1.87-2.071-2.664-5.6-1.773-9.038c1.504-5.809,6.358-9.511,11.527-8.172c5.086,1.317,7.58,7.07,6.076,12.878
		c-1.938,7.482-7.953,10.09-16.855,7.785c-8.572-2.22-12.895-7.504-10.885-15.265C42.136,465.827,46.25,463.967,49.695,464.016z
		 M57.482,483.982c3.609,0.935,6.835-1.552,7.87-5.549c1.011-3.903-0.579-7.737-3.983-8.618c-3.364-0.871-6.738,1.678-7.749,5.581
		S54.118,483.112,57.482,483.982z"/>
</g>
<g>
	<path fill="#E6E6E6" d="M29.722,604.896c-4.95-0.251-8.17-4.548-7.803-11.787s4.005-11.188,8.955-10.938
		c3.217,0.163,5.975,2.658,7.056,6.463c0.784-2.076,2.785-4.714,6.128-4.545c4.189,0.213,6.886,3.954,6.555,10.475
		c-0.33,6.521-3.392,9.97-7.581,9.758c-3.343-0.17-5.066-2.997-5.637-5.141C35.935,602.855,32.938,605.059,29.722,604.896z
		 M29.947,601.303c3.639,0.185,5.934-3.208,6.149-7.476c0.217-4.267-1.723-7.874-5.361-8.059c-3.301-0.167-5.528,2.748-5.77,7.494
		C24.726,598.009,26.646,601.135,29.947,601.303z M39.017,593.976c-0.15,2.973,0.938,6.585,4.028,6.741
		c2.667,0.135,4.326-2.472,4.521-6.308c0.194-3.835-1.192-6.598-3.859-6.733C40.616,587.52,39.168,591.004,39.017,593.976z"/>
</g>
<g>
	<path fill="#E6E6E6" d="M57.836,721.517l-3.561,0.546l-26.173-9.394l-0.633-4.128l26.791,9.785L51.484,700.2l3.016-0.463
		L57.836,721.517z"/>
</g>
<g>
	<path fill="#E6E6E6" d="M82.853,835.266l-1.4-3.781c1.476-1.262,2.803-3.289,1.553-6.666c-2.051-5.537-7.663-6.172-13.623-3.963
		c2.719,0.631,5.386,3.072,6.619,6.404c2.084,5.627,0.214,11.438-4.792,13.291c-4.928,1.826-10.261-1.473-12.345-7.1
		c-2.684-7.246,0.764-12.824,9.386-16.018c8.305-3.076,14.872-1.207,17.656,6.311C88.024,829.461,85.709,833.338,82.853,835.266z
		 M65.057,823.326c-3.497,1.297-4.725,5.18-3.291,9.051c1.4,3.781,4.896,6.02,8.194,4.799c3.258-1.207,4.571-5.227,3.171-9.008
		S68.315,822.121,65.057,823.326z"/>
</g>
<g>
	<path fill="#E6E6E6" d="M126.01,946.628c-4.388,2.734-10.375,0.979-13.549-4.113c-4.317-6.926-1.876-11.5,0.214-13.596l1.955,3.137
		c-1.381,1.71-2.108,4.709,0.38,8.701c2.285,3.667,6.146,4.653,9.095,2.815c3.164-1.972,3.737-5.779,1.528-9.323
		c-1.498-2.404-3.713-3.795-5.232-4.149l-0.242-3.752l12.435-5.205l8.761,14.055l-2.59,1.614l-7.034-11.285l-7.666,3.082
		c1.445,0.796,3.07,2.441,4.086,4.07C131.553,938.138,130.577,943.782,126.01,946.628z"/>
</g>
<g>
	<path fill="#E6E6E6" d="M202.25,1039.798l-2.058,1.955l-2.944-3.096l-5.19,4.934l-2.48-2.609l5.19-4.935l-10.451-10.994
		l2.243-2.132l22.093-2.589l3.737,3.932l-13.084,12.438L202.25,1039.798z M196.826,1034.091l11.118-10.568l-19.254,2.01
		L196.826,1034.091z"/>
</g>
<g>
	<path fill="#E6E6E6" d="M293.183,1117.453c-2.856,4.104-8.733,4.143-13.658,0.715c-4.886-3.4-6.968-8.979-4.869-12.836l2.994,2.084
		c-1.107,2.432,0.489,6.02,3.641,8.215c3.704,2.576,7.242,2.199,8.887-0.164c1.623-2.332,0.727-6.002-2.583-8.305l-2.995-2.084
		l1.67-2.4l2.64,1.838c2.719,1.891,6.188,2.035,7.737-0.191c1.525-2.189,0.793-4.92-2.635-7.307
		c-3.191-2.221-6.242-2.123-7.832-0.598l-2.876-2.002c2.315-2.57,7.313-3.531,12.396,0.006c5.122,3.564,6.467,8.271,3.974,11.854
		c-1.598,2.295-5.242,2.908-7.353,2.16C294.653,1111.559,294.901,1114.984,293.183,1117.453z"/>
</g>
<g>
	<path fill="#E6E6E6" d="M381.457,1171.623l15.705,6.739l-1.203,2.804l-19.631-8.425l0.685-1.597
		c3.275-7.632,21.09-3.86,23.63-9.779c1.287-2.998-0.266-5.831-4.501-7.648c-3.882-1.666-7.169-1.188-8.847,1.506l-3.309-1.42
		c2.39-4.231,7.905-5.277,13.287-2.967c6.309,2.707,8.55,7.588,6.712,11.871C400.893,1169.911,383.941,1167.294,381.457,1171.623z"
		/>
</g>
<g>
	<path fill="#E6E6E6" d="M511.586,1186.684l-5.647,27.478l-3.526-0.726l5.033-24.488l-6.583-1.353l0.614-2.989L511.586,1186.684z"/>
</g>
<g>
</g>
<g>
</g>
<g>
</g>
<g>
</g>
<g>
</g>
</svg>
