<?xml version="1.0" encoding="utf-8"?>
<!-- Generator: Adobe Illustrator 16.0.0, SVG Export Plug-In . SVG Version: 6.00 Build 0)  -->
<!DOCTYPE svg PUBLIC "-//W3C//DTD SVG 1.1//EN" "http://www.w3.org/Graphics/SVG/1.1/DTD/svg11.dtd">
<svg version="1.1" id="Minutes_Index" xmlns="http://www.w3.org/2000/svg" xmlns:xlink="http://www.w3.org/1999/xlink" x="0px"
	 y="0px" width="1247.24px" height="1247.24px" viewBox="0 0 1247.24 1247.24" enable-background="new 0 0 1247.24 1247.24"
	 xml:space="preserve">
<circle fill="#1A1A1A" stroke="#000000" stroke-miterlimit="10" cx="623.622" cy="623.622" r="559.843"/>
<g>
	<path fill="#E6E6E6" d="M884.664,167.874c0,13.26-4.561,20.339-13.92,20.339s-13.92-7.08-13.92-20.339
		c0-13.259,4.561-20.339,13.92-20.339C881.664,147.714,884.664,157.494,884.664,167.874z M880.164,167.874
		c0-10.62-2.82-15.959-9.42-15.959s-9.42,5.339-9.42,15.959s2.82,15.959,9.42,15.959
		C878.904,183.653,880.164,175.253,880.164,167.874z"/>
	<path fill="#E6E6E6" d="M917.362,175.014c0,7.319-5.819,13.199-13.319,13.199c-10.199,0-13.439-6.36-14.279-10.439h4.619
		c0.9,2.94,3.601,6.06,9.48,6.06c5.399,0,9-3.9,9-8.819c0-5.28-3.66-8.82-8.881-8.82c-3.539,0-6.479,1.62-7.859,3.18l-4.14-2.52
		l2.7-18.839h20.699v4.32h-16.619l-1.801,11.52c1.801-1.14,4.62-1.86,7.02-1.86C912.022,161.994,917.362,167.394,917.362,175.014z"
		/>
</g>
<g>
	<path fill="#E6E6E6" d="M1136.031,599.184v39.719h-4.5v-35.399h-8.4v-4.32H1136.031z"/>
	<path fill="#E6E6E6" d="M1178.149,626.183c0,7.319-5.819,13.199-13.319,13.199c-10.199,0-13.439-6.36-14.279-10.439h4.619
		c0.9,2.94,3.601,6.06,9.48,6.06c5.399,0,9-3.9,9-8.819c0-5.28-3.66-8.82-8.881-8.82c-3.539,0-6.479,1.62-7.859,3.18l-4.14-2.52
		l2.7-18.839h20.699v4.32h-16.619l-1.801,11.52c1.801-1.14,4.62-1.86,7.02-1.86C1172.81,613.163,1178.149,618.562,1178.149,626.183z
		"/>
</g>
<g>
	<path fill="#E6E6E6" d="M862.704,1096.17h21.359v4.319h-26.698v-2.46c0-11.76,22.318-16.799,22.318-25.919
		c0-4.62-3.18-7.439-8.939-7.439c-5.279,0-8.82,2.46-9.42,6.899h-4.5c0.66-6.84,6.48-11.279,13.8-11.279
		c8.579,0,13.56,5.1,13.56,11.699C884.184,1083.09,863.424,1089.15,862.704,1096.17z"/>
	<path fill="#E6E6E6" d="M917.362,1087.77c0,7.32-5.819,13.199-13.319,13.199c-10.199,0-13.439-6.359-14.279-10.439h4.619
		c0.9,2.94,3.601,6.061,9.48,6.061c5.399,0,9-3.9,9-8.82c0-5.279-3.66-8.819-8.881-8.819c-3.539,0-6.479,1.62-7.859,3.18
		l-4.14-2.521l2.7-18.838h20.699v4.319h-16.619l-1.801,11.52c1.801-1.14,4.62-1.86,7.02-1.86
		C912.022,1074.75,917.362,1080.15,917.362,1087.77z"/>
</g>
<g>
	<path fill="#E6E6E6" d="M357.119,1089.09c0,7.079-6,11.879-13.5,11.879c-7.439,0-13.559-4.8-14.159-10.979h4.56
		c0.6,3.72,4.8,6.6,9.6,6.6c5.64,0,9-3.3,9-7.38c0-4.02-3.54-7.56-8.58-7.56h-4.56v-4.14h4.02c4.14,0,7.799-2.641,7.799-6.48
		c0-3.779-2.7-6.359-7.919-6.359c-4.86,0-7.92,2.58-8.459,5.641h-4.38c0.54-4.86,4.979-10.02,12.719-10.02
		c7.8,0,12.54,4.379,12.54,10.559c0,3.96-3.3,7.62-6,8.46C354.419,1081.05,357.119,1084.83,357.119,1089.09z"/>
	<path fill="#E6E6E6" d="M390.118,1087.77c0,7.319-5.82,13.199-13.319,13.199c-10.2,0-13.439-6.359-14.279-10.439h4.62
		c0.9,2.939,3.6,6.06,9.479,6.06c5.4,0,9-3.899,9-8.819c0-5.28-3.66-8.82-8.88-8.82c-3.54,0-6.479,1.62-7.859,3.18l-4.14-2.52
		l2.7-18.839h20.699v4.319h-16.619l-1.8,11.52c1.8-1.14,4.62-1.859,7.02-1.859C384.778,1074.75,390.118,1080.149,390.118,1087.77z"
		/>
</g>
<g>
	<path fill="#E6E6E6" d="M96.872,624.742v4.02h-5.34v10.141h-4.5v-10.141H68.073v-4.379l16.679-25.199h6.78v25.559H96.872z
		 M87.032,624.742v-21.719l-14.76,21.719H87.032z"/>
	<path fill="#E6E6E6" d="M129.331,626.183c0,7.319-5.82,13.199-13.319,13.199c-10.2,0-13.439-6.36-14.279-10.439h4.62
		c0.9,2.94,3.6,6.06,9.479,6.06c5.4,0,9-3.9,9-8.819c0-5.28-3.66-8.82-8.88-8.82c-3.54,0-6.479,1.62-7.859,3.18l-4.14-2.52
		l2.7-18.839h20.699v4.32h-16.619l-1.8,11.52c1.8-1.14,4.62-1.86,7.02-1.86C123.991,613.163,129.331,618.562,129.331,626.183z"/>
</g>
<g>
	<path fill="#E6E6E6" d="M357.119,175.014c0,7.319-5.82,13.199-13.319,13.199c-10.2,0-13.439-6.36-14.279-10.439h4.62
		c0.9,2.94,3.6,6.06,9.479,6.06c5.4,0,9-3.9,9-8.819c0-5.28-3.66-8.82-8.88-8.82c-3.54,0-6.479,1.62-7.859,3.18l-4.14-2.52
		l2.7-18.839h20.699v4.32H338.52l-1.8,11.52c1.8-1.14,4.62-1.86,7.02-1.86C351.779,161.994,357.119,167.394,357.119,175.014z"/>
	<path fill="#E6E6E6" d="M390.118,175.014c0,7.319-5.82,13.199-13.319,13.199c-10.2,0-13.439-6.36-14.279-10.439h4.62
		c0.9,2.94,3.6,6.06,9.479,6.06c5.4,0,9-3.9,9-8.819c0-5.28-3.66-8.82-8.88-8.82c-3.54,0-6.479,1.62-7.859,3.18l-4.14-2.52
		l2.7-18.839h20.699v4.32h-16.619l-1.8,11.52c1.8-1.14,4.62-1.86,7.02-1.86C384.778,161.994,390.118,167.394,390.118,175.014z"/>
</g>
<path fill="#E6E6E6" d="M685.221,1155.459c0.268,2.549-2.039,4.878-5.153,5.205l0,0c-3.114,0.328-5.855-1.472-6.123-4.02
	l-2.29-21.786c-0.268-2.547,2.04-4.876,5.153-5.204l0,0c3.115-0.327,5.855,1.473,6.123,4.02L685.221,1155.459z"/>
<path fill="#E6E6E6" d="M740.476,1146.107c0.532,2.507-1.519,5.063-4.581,5.715l0,0c-3.063,0.652-5.978-0.852-6.51-3.357
	l-4.555-21.428c-0.532-2.504,1.519-5.062,4.581-5.713l0,0c3.063-0.652,5.978,0.852,6.51,3.356L740.476,1146.107z"/>
<path fill="#E6E6E6" d="M794.45,1131.031c0.791,2.438-0.981,5.194-3.959,6.162l0,0c-2.978,0.97-6.033-0.223-6.824-2.658
	l-6.771-20.835c-0.791-2.435,0.981-5.192,3.959-6.16l0,0c2.979-0.969,6.034,0.223,6.825,2.658L794.45,1131.031z"/>
<path fill="#E6E6E6" d="M846.553,1110.396c1.042,2.341-0.434,5.269-3.293,6.542l0,0c-2.859,1.275-6.023,0.41-7.065-1.93
	l-8.911-20.014c-1.04-2.338,0.435-5.267,3.294-6.539l0,0c2.862-1.275,6.024-0.41,7.066,1.93L846.553,1110.396z"/>
<path fill="#E6E6E6" d="M942.888,1053.41c1.506,2.072,0.671,5.243-1.861,7.083l0,0c-2.532,1.843-5.807,1.653-7.312-0.418
	l-12.877-17.724c-1.503-2.072-0.671-5.241,1.861-7.081l0,0c2.535-1.843,5.809-1.655,7.315,0.418L942.888,1053.41z"/>
<path fill="#E6E6E6" d="M986.063,1017.684c1.715,1.904,1.216,5.145-1.11,7.239l0,0c-2.325,2.097-5.603,2.251-7.315,0.349
	l-14.66-16.281c-1.711-1.903-1.215-5.142,1.111-7.236l0,0c2.328-2.098,5.604-2.254,7.319-0.349L986.063,1017.684z"/>
<path fill="#E6E6E6" d="M1025.269,977.641c1.904,1.714,1.747,4.988-0.348,7.314l0,0c-2.094,2.328-5.336,2.824-7.239,1.111
	l-16.28-14.66c-1.901-1.713-1.747-4.986,0.348-7.312l0,0c2.096-2.328,5.338-2.826,7.243-1.111L1025.269,977.641z"/>
<path fill="#E6E6E6" d="M1060.073,933.718c2.072,1.506,2.259,4.778,0.419,7.312l0,0c-1.839,2.533-5.012,3.365-7.083,1.861
	l-17.724-12.878c-2.07-1.505-2.259-4.776-0.419-7.31l0,0c1.841-2.534,5.013-3.368,7.087-1.861L1060.073,933.718z"/>
<path fill="#E6E6E6" d="M1115.01,836.199c2.339,1.041,3.201,4.204,1.929,7.064l0,0c-1.271,2.86-4.203,4.334-6.542,3.293
	l-20.013-8.91c-2.339-1.042-3.203-4.203-1.93-7.063l0,0c1.273-2.862,4.202-4.338,6.544-3.294L1115.01,836.199z"/>
<path fill="#E6E6E6" d="M1134.538,783.672c2.436,0.79,3.623,3.846,2.657,6.823l0,0c-0.966,2.978-3.728,4.75-6.162,3.959
	l-20.835-6.769c-2.435-0.793-3.625-3.847-2.657-6.824l0,0c0.968-2.98,3.726-4.753,6.164-3.959L1134.538,783.672z"/>
<path fill="#E6E6E6" d="M1148.469,729.39c2.506,0.532,4.006,3.446,3.355,6.509l0,0c-0.648,3.062-3.21,5.114-5.714,4.582
	l-21.428-4.555c-2.505-0.534-4.008-3.447-3.356-6.509l0,0c0.65-3.065,3.208-5.116,5.716-4.582L1148.469,729.39z"/>
<path fill="#E6E6E6" d="M1156.649,673.949c2.548,0.268,4.345,3.01,4.018,6.122l0,0c-0.325,3.112-2.658,5.423-5.204,5.155
	l-21.786-2.291c-2.547-0.27-4.346-3.009-4.019-6.121l0,0c0.327-3.117,2.655-5.425,5.205-5.156L1156.649,673.949z"/>
<path fill="#E6E6E6" d="M1155.466,562.028c2.547-0.269,4.875,2.041,5.202,5.153l0,0c0.328,3.111-1.473,5.857-4.019,6.125
	l-21.786,2.29c-2.548,0.265-4.877-2.041-5.204-5.153l0,0c-0.327-3.117,1.47-5.858,4.019-6.125L1155.466,562.028z"/>
<path fill="#E6E6E6" d="M1146.114,506.772c2.505-0.533,5.061,1.521,5.713,4.582l0,0c0.65,3.06-0.854,5.979-3.357,6.511
	l-21.428,4.555c-2.506,0.529-5.062-1.52-5.713-4.581l0,0c-0.652-3.066,0.848-5.98,3.355-6.511L1146.114,506.772z"/>
<path fill="#E6E6E6" d="M1131.038,452.797c2.436-0.792,5.191,0.983,6.16,3.959l0,0c0.967,2.975-0.224,6.035-2.658,6.826
	l-20.835,6.77c-2.437,0.788-5.192-0.982-6.16-3.959l0,0c-0.969-2.98,0.219-6.036,2.656-6.826L1131.038,452.797z"/>
<path fill="#E6E6E6" d="M1110.402,400.694c2.339-1.042,5.267,0.435,6.54,3.294l0,0c1.273,2.857,0.409,6.025-1.93,7.066l-20.014,8.91
	c-2.34,1.039-5.267-0.434-6.539-3.293l0,0c-1.275-2.863-0.414-6.025,1.928-7.066L1110.402,400.694z"/>
<path fill="#E6E6E6" d="M1053.416,304.359c2.071-1.505,5.242-0.669,7.082,1.862l0,0c1.84,2.529,1.653,5.808-0.419,7.312
	l-17.724,12.877c-2.073,1.502-5.24,0.669-7.081-1.862l0,0c-1.842-2.536-1.658-5.808,0.417-7.313L1053.416,304.359z"/>
<path fill="#E6E6E6" d="M1017.689,261.183c1.903-1.713,5.144-1.213,7.238,1.112l0,0c2.094,2.323,2.251,5.604,0.348,7.316
	l-16.281,14.66c-1.904,1.711-5.141,1.213-7.236-1.111l0,0c-2.097-2.329-2.257-5.603-0.35-7.316L1017.689,261.183z"/>
<path fill="#E6E6E6" d="M977.646,221.978c1.714-1.903,4.988-1.744,7.314,0.349l0,0c2.325,2.092,2.824,5.337,1.111,7.24
	l-14.66,16.281c-1.715,1.9-4.986,1.744-7.312-0.349l0,0c-2.329-2.097-2.83-5.336-1.113-7.24L977.646,221.978z"/>
<path fill="#E6E6E6" d="M933.723,187.173c1.506-2.072,4.778-2.256,7.311-0.417l0,0c2.531,1.837,3.367,5.013,1.862,7.083
	l-12.878,17.725c-1.507,2.069-4.776,2.255-7.309,0.417l0,0c-2.536-1.842-3.373-5.011-1.863-7.084L933.723,187.173z"/>
<path fill="#E6E6E6" d="M836.204,132.238c1.041-2.34,4.204-3.201,7.064-1.928l0,0c2.856,1.271,4.335,4.203,3.293,6.541
	l-8.911,20.015c-1.043,2.337-4.203,3.2-7.062,1.928l0,0c-2.863-1.275-4.341-4.201-3.294-6.542L836.204,132.238z"/>
<path fill="#E6E6E6" d="M783.676,112.709c0.791-2.436,3.847-3.623,6.824-2.656l0,0c2.974,0.965,4.751,3.727,3.959,6.161
	l-6.77,20.836c-0.794,2.434-3.847,3.622-6.823,2.656l0,0c-2.981-0.969-4.756-3.723-3.959-6.162L783.676,112.709z"/>
<path fill="#E6E6E6" d="M729.394,98.778c0.532-2.505,3.447-4.004,6.51-3.354l0,0c3.058,0.649,5.114,3.21,4.581,5.713l-4.554,21.43
	c-0.536,2.504-3.448,4.004-6.509,3.354l0,0c-3.066-0.652-5.119-3.206-4.582-5.714L729.394,98.778z"/>
<path fill="#E6E6E6" d="M673.953,90.597c0.268-2.546,3.01-4.343,6.123-4.017l0,0c3.108,0.326,5.423,2.658,5.153,5.203l-2.289,21.789
	c-0.271,2.546-3.01,4.342-6.122,4.016l0,0c-3.117-0.327-5.427-2.653-5.154-5.204L673.953,90.597z"/>
<path fill="#E6E6E6" d="M562.031,91.782c-0.268-2.546,2.041-4.874,5.154-5.202l0,0c3.107-0.328,5.856,1.472,6.122,4.018
	l2.292,21.789c0.264,2.547-2.043,4.873-5.154,5.201l0,0c-3.117,0.328-5.859-1.467-6.123-4.018L562.031,91.782z"/>
<path fill="#E6E6E6" d="M506.776,101.133c-0.532-2.504,1.521-5.06,4.582-5.711l0,0c3.057-0.651,5.979,0.851,6.509,3.355l4.557,21.43
	c0.528,2.505-1.522,5.06-4.582,5.711l0,0c-3.066,0.652-5.98-0.846-6.51-3.356L506.776,101.133z"/>
<path fill="#E6E6E6" d="M452.802,116.209c-0.791-2.435,0.982-5.191,3.96-6.159l0,0c2.972-0.967,6.034,0.222,6.823,2.657
	l6.772,20.836c0.787,2.436-0.985,5.191-3.96,6.159l0,0c-2.981,0.969-6.037-0.216-6.825-2.657L452.802,116.209z"/>
<path fill="#E6E6E6" d="M400.698,136.845c-1.041-2.339,0.435-5.266,3.295-6.54l0,0c2.854-1.272,6.024-0.41,7.063,1.929l8.913,20.014
	c1.037,2.34-0.438,5.266-3.295,6.539l0,0c-2.863,1.275-6.026,0.416-7.064-1.929L400.698,136.845z"/>
<path fill="#E6E6E6" d="M304.363,193.832c-1.505-2.072-0.67-5.241,1.863-7.082l0,0c2.527-1.838,5.808-1.653,7.311,0.418
	l12.879,17.724c1.501,2.074,0.667,5.242-1.863,7.081l0,0c-2.535,1.843-5.808,1.661-7.312-0.418L304.363,193.832z"/>
<path fill="#E6E6E6" d="M261.187,229.559c-1.713-1.903-1.214-5.142,1.113-7.238l0,0c2.321-2.092,5.603-2.252,7.314-0.349
	l14.661,16.281c1.709,1.905,1.211,5.143-1.113,7.237l0,0c-2.329,2.098-5.603,2.259-7.315,0.349L261.187,229.559z"/>
<path fill="#E6E6E6" d="M221.981,269.603c-1.902-1.713-1.745-4.987,0.351-7.314l0,0c2.09-2.324,5.336-2.825,7.237-1.111
	l16.283,14.659c1.898,1.716,1.742,4.988-0.351,7.313l0,0c-2.098,2.33-5.336,2.832-7.239,1.111L221.981,269.603z"/>
<path fill="#E6E6E6" d="M187.177,313.525c-2.071-1.505-2.257-4.777-0.416-7.311l0,0c1.835-2.529,5.012-3.367,7.081-1.861
	l17.727,12.876c2.067,1.509,2.254,4.779,0.416,7.31l0,0c-1.843,2.536-5.011,3.374-7.083,1.862L187.177,313.525z"/>
<path fill="#E6E6E6" d="M132.241,411.044c-2.339-1.042-3.2-4.204-1.927-7.064l0,0c1.269-2.856,4.201-4.336,6.539-3.293l20.017,8.91
	c2.336,1.045,3.198,4.206,1.927,7.063l0,0c-1.275,2.864-4.199,4.342-6.541,3.294L132.241,411.044z"/>
<path fill="#E6E6E6" d="M112.713,463.572c-2.435-0.791-3.622-3.845-2.655-6.824l0,0c0.964-2.973,3.726-4.752,6.159-3.958
	l20.839,6.769c2.432,0.795,3.62,3.848,2.654,6.823l0,0c-0.969,2.981-3.723,4.757-6.161,3.96L112.713,463.572z"/>
<path fill="#E6E6E6" d="M98.782,517.854c-2.504-0.532-4.005-3.446-3.354-6.509l0,0c0.647-3.058,3.208-5.115,5.712-4.581
	l21.432,4.553c2.502,0.537,4.003,3.448,3.354,6.508l0,0c-0.652,3.066-3.205,5.12-5.713,4.583L98.782,517.854z"/>
<path fill="#E6E6E6" d="M90.602,573.294c-2.546-0.268-4.343-3.008-4.017-6.123l0,0c0.324-3.108,2.655-5.422,5.202-5.152l21.79,2.288
	c2.545,0.272,4.342,3.012,4.016,6.122l0,0c-0.328,3.118-2.652,5.427-5.203,5.155L90.602,573.294z"/>
<path fill="#E6E6E6" d="M91.786,685.215c-2.547,0.268-4.874-2.039-5.202-5.152l0,0c-0.329-3.107,1.47-5.855,4.017-6.121l21.79-2.293
	c2.546-0.264,4.873,2.043,5.201,5.152l0,0c0.326,3.118-1.467,5.859-4.019,6.124L91.786,685.215z"/>
<path fill="#E6E6E6" d="M101.138,740.471c-2.505,0.531-5.061-1.52-5.712-4.581l0,0c-0.652-3.056,0.85-5.978,3.354-6.508
	l21.431-4.558c2.505-0.529,5.061,1.521,5.712,4.58l0,0c0.65,3.066-0.847,5.98-3.356,6.512L101.138,740.471z"/>
<path fill="#E6E6E6" d="M116.214,794.445c-2.436,0.791-5.191-0.982-6.159-3.959l0,0c-0.968-2.971,0.22-6.033,2.656-6.822
	l20.836-6.772c2.437-0.789,5.192,0.983,6.159,3.958l0,0c0.968,2.981-0.216,6.035-2.657,6.826L116.214,794.445z"/>
<path fill="#E6E6E6" d="M136.85,846.549c-2.34,1.041-5.266-0.436-6.54-3.294l0,0c-1.272-2.853-0.411-6.022,1.929-7.063l20.015-8.912
	c2.34-1.039,5.267,0.436,6.539,3.292l0,0c1.274,2.864,0.416,6.024-1.93,7.067L136.85,846.549z"/>
<path fill="#E6E6E6" d="M193.836,942.885c-2.072,1.504-5.241,0.666-7.082-1.863l0,0c-1.838-2.525-1.654-5.805,0.418-7.311
	l17.725-12.878c2.073-1.503,5.242-0.669,7.08,1.859l0,0c1.843,2.538,1.659,5.808-0.418,7.315L193.836,942.885z"/>
<path fill="#E6E6E6" d="M229.562,986.061c-1.903,1.713-5.143,1.211-7.238-1.111l0,0c-2.092-2.32-2.252-5.602-0.349-7.314
	l16.281-14.66c1.905-1.713,5.144-1.214,7.236,1.109l0,0c2.098,2.33,2.257,5.602,0.349,7.318L229.562,986.061z"/>
<path fill="#E6E6E6" d="M269.606,1025.266c-1.714,1.903-4.988,1.742-7.314-0.349l0,0c-2.323-2.089-2.825-5.335-1.111-7.238
	l14.659-16.28c1.716-1.904,4.988-1.746,7.312,0.346l0,0c2.33,2.098,2.83,5.336,1.112,7.242L269.606,1025.266z"/>
<path fill="#E6E6E6" d="M313.529,1060.07c-1.506,2.072-4.779,2.254-7.312,0.418l0,0c-2.528-1.834-3.367-5.01-1.861-7.082
	l12.877-17.724c1.508-2.073,4.778-2.258,7.309-0.421l0,0c2.536,1.842,3.372,5.011,1.863,7.087L313.529,1060.07z"/>
<path fill="#E6E6E6" d="M411.048,1115.006c-1.041,2.34-4.206,3.197-7.064,1.93l0,0c-2.854-1.269-4.335-4.201-3.293-6.543
	l8.911-20.012c1.043-2.342,4.204-3.202,7.062-1.932l0,0c2.862,1.275,4.34,4.2,3.296,6.545L411.048,1115.006z"/>
<path fill="#E6E6E6" d="M463.576,1134.535c-0.791,2.436-3.849,3.619-6.824,2.656l0,0c-2.972-0.963-4.751-3.725-3.959-6.162
	l6.771-20.834c0.793-2.438,3.847-3.623,6.821-2.658l0,0c2.979,0.969,4.755,3.723,3.962,6.164L463.576,1134.535z"/>
<path fill="#E6E6E6" d="M517.858,1148.466c-0.532,2.505-3.45,4.002-6.51,3.354l0,0c-3.056-0.646-5.114-3.207-4.581-5.714
	l4.556-21.427c0.533-2.508,3.446-4.006,6.506-3.357l0,0c3.064,0.652,5.118,3.205,4.584,5.717L517.858,1148.466z"/>
<path fill="#E6E6E6" d="M573.299,1156.646c-0.268,2.547-3.013,4.341-6.123,4.016l0,0c-3.107-0.322-5.422-2.654-5.153-5.203
	l2.291-21.785c0.268-2.55,3.009-4.344,6.119-4.02l0,0c3.116,0.329,5.425,2.652,5.156,5.207L573.299,1156.646z"/>
<circle fill="none" stroke="#E6E6E6" stroke-width="10" stroke-miterlimit="10" cx="1077.773" cy="885.827" r="21.26"/>
<circle fill="none" stroke="#E6E6E6" stroke-width="10" stroke-miterlimit="10" cx="1077.773" cy="361.418" r="21.26"/>
<circle fill="none" stroke="#F7931E" stroke-width="10" stroke-miterlimit="10" cx="623.622" cy="99.213" r="21.26"/>
<circle fill="none" stroke="#E6E6E6" stroke-width="10" stroke-miterlimit="10" cx="169.471" cy="361.417" r="21.26"/>
<circle fill="none" stroke="#E6E6E6" stroke-width="10" stroke-miterlimit="10" cx="169.471" cy="885.826" r="21.26"/>
<g>
	<path fill="#F7931E" d="M613.622,1129.606c5.5,0,14.5,0,20.001,0h7.82c5.501,0,7.751,3.897,5.001,8.661l-3.911,6.772
		c-2.75,4.764-7.25,12.559-10,17.322l-3.91,6.771c-2.751,4.764-7.251,4.764-10.001,0l-3.91-6.771
		c-2.75-4.764-7.25-12.559-10.001-17.322l-3.91-6.772c-2.75-4.764-0.5-8.661,5-8.661H613.622z"/>
	<path fill="none" stroke="#F7931E" stroke-width="6" stroke-miterlimit="10" d="M613.622,1129.606c5.5,0,14.5,0,20.001,0h7.82
		c5.501,0,7.751,3.897,5.001,8.661l-3.911,6.772c-2.75,4.764-7.25,12.559-10,17.322l-3.91,6.771c-2.751,4.764-7.251,4.764-10.001,0
		l-3.91-6.771c-2.75-4.764-7.25-12.559-10.001-17.322l-3.91-6.772c-2.75-4.764-0.5-8.661,5-8.661H613.622z"/>
</g>
<g>
</g>
<g>
</g>
<g>
</g>
<g>
</g>
<g>
</g>
</svg>
