<?xml version="1.0" encoding="utf-8"?>
<!-- Generator: Adobe Illustrator 16.0.0, SVG Export Plug-In . SVG Version: 6.00 Build 0)  -->
<!DOCTYPE svg PUBLIC "-//W3C//DTD SVG 1.1//EN" "http://www.w3.org/Graphics/SVG/1.1/DTD/svg11.dtd">
<svg version="1.1" id="Days_Index_1_" xmlns="http://www.w3.org/2000/svg" xmlns:xlink="http://www.w3.org/1999/xlink" x="0px"
	 y="0px" width="283.465px" height="283.465px" viewBox="0 0 283.465 283.465" enable-background="new 0 0 283.465 283.465"
	 xml:space="preserve">
<circle fill="#1A1A1A" stroke="#000000" stroke-miterlimit="10" cx="141.732" cy="141.732" r="141.732"/>
<path fill="#E6E6E6" d="M147.402,271.871c0,3.125-2.538,5.658-5.668,5.658l0,0c-3.132,0-5.67-2.533-5.67-5.658v-19.865
	c0-3.124,2.537-5.658,5.669-5.657l0,0c3.132,0,5.67,2.533,5.67,5.657L147.402,271.871z"/>
<path fill="#E6E6E6" d="M246.989,218.452c2.443,1.949,2.842,5.513,0.891,7.96l0,0c-1.953,2.448-5.516,2.854-7.959,0.905
	l-15.531-12.386c-2.443-1.948-2.842-5.512-0.889-7.96l0,0c1.953-2.448,5.516-2.854,7.958-0.905L246.989,218.452z"/>
<path fill="#E6E6E6" d="M267.316,107.286c3.048-0.695,6.082,1.215,6.778,4.267l0,0c0.697,3.054-1.207,6.091-4.254,6.787
	l-19.367,4.42c-3.047,0.696-6.082-1.215-6.777-4.268l0,0c-0.696-3.053,1.208-6.092,4.254-6.787L267.316,107.286z"/>
<path fill="#E6E6E6" d="M13.628,118.34c-3.047-0.697-4.952-3.734-4.256-6.786l0,0c0.697-3.054,3.73-4.964,6.777-4.27l19.367,4.422
	c3.047,0.695,4.953,3.732,4.254,6.785l0,0c-0.697,3.054-3.73,4.963-6.776,4.269L13.628,118.34z"/>
<path fill="#E6E6E6" d="M43.548,227.316c-2.445,1.947-6.008,1.544-7.959-0.903l0,0c-1.954-2.449-1.557-6.012,0.887-7.961
	l15.533-12.385c2.442-1.949,6.006-1.546,7.957,0.904l0,0c1.953,2.449,1.554,6.012-0.889,7.96L43.548,227.316z"/>
<g>
	<path fill="#E6E6E6" d="M183.931,27.89c4.603-9.559,10.347-13.08,17.094-9.831c6.748,3.249,7.578,9.935,2.976,19.493
		s-10.347,13.08-17.095,9.831C179.096,43.464,180.328,35.372,183.931,27.89z M187.175,29.451
		c-3.687,7.655-3.507,12.484,1.251,14.774c4.758,2.291,8.644-0.579,12.33-8.235c3.687-7.655,3.507-12.483-1.251-14.774
		C193.561,18.514,189.736,24.132,187.175,29.451z"/>
</g>
<g>
	<path fill="#E6E6E6" d="M78.996,37.753c-4.604-9.558-3.775-16.245,2.972-19.494c6.746-3.25,12.491,0.27,17.096,9.828
		c4.604,9.558,3.775,16.245-2.972,19.495C88.157,51.243,82.601,45.235,78.996,37.753z M82.239,36.191
		c3.688,7.655,7.574,10.525,12.332,8.234c4.757-2.292,4.936-7.12,1.248-14.775s-7.574-10.525-12.331-8.233
		C77.669,24.379,79.677,30.871,82.239,36.191z"/>
</g>
<g>
</g>
<g>
</g>
<g>
</g>
<g>
</g>
<g>
</g>
</svg>
