<?xml version="1.0" encoding="utf-8"?>
<!-- Generator: Adobe Illustrator 16.0.0, SVG Export Plug-In . SVG Version: 6.00 Build 0)  -->
<!DOCTYPE svg PUBLIC "-//W3C//DTD SVG 1.1//EN" "http://www.w3.org/Graphics/SVG/1.1/DTD/svg11.dtd">
<svg version="1.1" id="Hours_Index" xmlns="http://www.w3.org/2000/svg" xmlns:xlink="http://www.w3.org/1999/xlink" x="0px"
	 y="0px" width="524.41px" height="524.41px" viewBox="0 0 524.41 524.41" enable-background="new 0 0 524.41 524.41"
	 xml:space="preserve">
<circle fill="#1A1A1A" stroke="#000000" stroke-miterlimit="10" cx="262.205" cy="262.205" r="262.205"/>
<g>
	<path fill="#E6E6E6" d="M137.778,45.981v47.668h-5.4V51.166h-10.081v-5.184H137.778z"/>
	<path fill="#E6E6E6" d="M177.377,45.981v47.668h-5.4V51.166h-10.081v-5.184H177.377z"/>
</g>
<g>
	<path fill-rule="evenodd" clip-rule="evenodd" fill="#E6E6E6" d="M221.46,42.92c-3.93-1.202-6.584-3.526-6.507-7.729
		c0.074-4.069,2.673-6.318,6.562-7.354c-0.048-0.523-0.036-0.973-0.136-1.395c-1.276-5.387,1.972-9.598,7.567-9.664
		c5.004-0.058,10.01,0.004,15.016,0.01c0.996,0.003,1.992,0.001,3.037,0.001c-0.965-5.771,0.174-8.761,3.864-10.405
		c0.749-0.334,1.589-0.67,2.384-0.662c10.372,0.101,20.812-0.433,31.098,0.576c15.072,1.479,25.864,15.414,25.075,30.961
		c-0.762,15.024-13.063,27.469-28.041,27.777c-14.359,0.296-28.732,0.105-43.098,0.029c-4.92-0.026-8.026-3.853-7.338-8.7
		c0.102-0.713,0.281-1.414,0.424-2.12C221.834,52.612,219.703,50.244,221.46,42.92z M254.807,20.6c0-0.018,0-0.035,0-0.054
		c-3.708,0-7.417,0.003-11.125,0c-4.914-0.004-9.827-0.013-14.74-0.016c-2.386-0.001-3.93,1.076-4.14,3.538
		c-0.188,2.199,1.508,3.695,4.151,3.823c0.647,0.031,1.297,0.008,1.946,0.011c10.939,0.048,21.879,0.091,32.819,0.157
		c0.916,0.005,1.938-0.053,2.712,0.328c0.573,0.281,1.104,1.222,1.116,1.878c0.01,0.47-0.798,1.182-1.378,1.377
		c-0.755,0.255-1.646,0.129-2.48,0.126c-12.886-0.029-25.773-0.065-38.66-0.1c-0.649-0.003-1.298-0.019-1.947,0.003
		c-2.709,0.088-4.354,1.444-4.399,3.609c-0.044,2.175,1.608,3.637,4.261,3.747c0.741,0.032,1.483,0.013,2.225,0.015
		c12.794,0.041,25.588,0.071,38.382,0.141c1.497,0.008,3.606-0.4,3.584,1.931c-0.023,2.432-2.209,1.754-3.641,1.763
		c-6.768,0.04-13.536-0.019-20.304-0.035c-4.821-0.013-9.642-0.047-14.462-0.008c-2.549,0.019-4.07,1.382-4.129,3.519
		c-0.062,2.274,1.473,3.683,4.16,3.801c0.648,0.028,1.298,0.012,1.947,0.015c10.94,0.035,21.879,0.062,32.818,0.119
		c1.007,0.006,2.108-0.02,2.982,0.375c0.566,0.256,1.083,1.246,1.09,1.911c0.002,0.466-0.829,1.156-1.417,1.349
		c-0.759,0.248-1.648,0.124-2.481,0.122c-8.25-0.023-16.502-0.081-24.753-0.067c-2.73,0.006-4.372,1.42-4.441,3.586
		c-0.07,2.168,1.589,3.749,4.229,3.755c14.184,0.044,28.374,0.311,42.549-0.039c13.434-0.332,23.671-11.037,24.478-24.796
		c0.751-12.813-8.649-25.036-21.66-26.427c-10.087-1.078-20.355-0.517-30.545-0.549c-2.006-0.006-3.203,1.43-3.256,3.478
		c-0.057,2.202,1.193,3.423,3.318,3.737c0.728,0.107,1.479,0.057,2.222,0.06c8.065,0.026,16.131,0.04,24.197,0.081
		c1.466,0.007,3.298-0.189,3.246,1.999c-0.051,2.038-1.811,1.729-3.163,1.73C271.68,20.608,263.243,20.6,254.807,20.6z"/>
</g>
<g>
	<path fill="#E6E6E6" d="M369.691,45.982V93.65h-5.4V51.166h-10.081v-5.184H369.691z"/>
</g>
<g>
	<path fill="#E6E6E6" d="M53.434,123.981v47.668h-5.4v-42.484H37.952v-5.184H53.434z"/>
	<path fill="#E6E6E6" d="M104.338,147.815c0,15.913-5.473,24.41-16.706,24.41s-16.706-8.497-16.706-24.41
		c0-15.914,5.473-24.41,16.706-24.41C100.737,123.621,104.338,135.358,104.338,147.815z M98.938,147.815
		c0-12.745-3.385-19.154-11.305-19.154c-7.921,0-11.305,6.409-11.305,19.154s3.384,19.154,11.305,19.154
		C97.425,166.753,98.938,156.672,98.938,147.815z"/>
</g>
<g>
	<path fill="#E6E6E6" d="M446.317,167.465h25.634v5.185h-32.043v-2.952c0-14.113,26.786-20.162,26.786-31.107
		c0-5.544-3.816-8.929-10.729-8.929c-6.336,0-10.585,2.952-11.305,8.281h-5.4c0.791-8.208,7.776-13.537,16.561-13.537
		c10.297,0,16.273,6.121,16.273,14.041C472.094,151.768,447.18,159.04,446.317,167.465z"/>
</g>
<g>
	<path fill="#E6E6E6" d="M19.452,274.561H25.5c1.008,3.096,3.168,6.408,8.569,6.408c8.857,0,12.673-8.568,12.673-19.37
		c-2.304,3.96-7.128,6.769-12.457,6.769c-9,0-16.201-6.408-16.201-15.481c0-8.929,7.417-15.481,16.417-15.481
		c11.593,0,17.642,8.785,17.642,24.41c0,15.049-6.049,24.41-18.074,24.41C24.924,286.225,20.676,280.249,19.452,274.561z
		 M45.519,253.247c0-6.336-4.825-10.585-11.017-10.585c-6.049,0-11.017,4.249-11.017,10.225c0,5.904,4.968,10.369,11.017,10.369
		C40.55,263.255,45.519,259.151,45.519,253.247z"/>
</g>
<g>
	<path fill="#E6E6E6" d="M505.327,271.968c0,8.497-7.2,14.257-16.201,14.257c-8.928,0-16.273-5.76-16.993-13.177h5.473
		c0.72,4.464,5.761,7.921,11.521,7.921c6.77,0,10.801-3.961,10.801-8.857c0-4.824-4.248-9.072-10.297-9.072h-5.472v-4.969h4.824
		c4.968,0,9.36-3.168,9.36-7.776c0-4.537-3.24-7.633-9.504-7.633c-5.833,0-9.506,3.096-10.153,6.769h-5.257
		c0.648-5.833,5.977-12.025,15.266-12.025c9.361,0,15.049,5.256,15.049,12.673c0,4.752-3.96,9.145-7.2,10.153
		C502.086,262.319,505.327,266.856,505.327,271.968z"/>
</g>
<g>
	<path fill="#E6E6E6" d="M86.518,387.109c0,8.425-6.192,14.257-17.065,14.257s-17.065-5.832-17.065-14.257
		c0-5.473,3.528-10.369,9.145-12.529c-3.168-1.151-7.272-4.32-7.272-10.009c0-7.129,5.4-12.025,15.193-12.025
		s15.193,4.896,15.193,12.025c0,5.688-4.104,8.857-7.273,10.009C82.99,376.74,86.518,381.636,86.518,387.109z M81.118,387.037
		c0-6.192-5.256-9.792-11.665-9.792s-11.665,3.6-11.665,9.792c0,5.616,4.536,9.146,11.665,9.146
		C76.581,396.182,81.118,392.653,81.118,387.037z M69.453,372.276c4.464,0,9.793-2.16,9.793-7.417c0-4.536-4.033-7.128-9.793-7.128
		c-5.761,0-9.793,2.592-9.793,7.128C59.66,370.116,64.988,372.276,69.453,372.276z"/>
</g>
<g>
	<path fill="#E6E6E6" d="M471.959,383.796v4.825h-6.409v12.168h-5.4v-12.168h-22.754v-5.257l20.018-30.243h8.137v30.675H471.959z
		 M460.15,383.796v-26.065l-17.714,26.065H460.15z"/>
</g>
<g>
	<path fill="#E6E6E6" d="M165.456,432.135v6.121l-19.874,41.547h-6.265l20.594-42.483h-27.506v-5.185H165.456z"/>
</g>
<g>
	<path fill="#E6E6E6" d="M391.94,464.539c0,8.784-6.984,15.841-15.984,15.841c-12.241,0-16.13-7.633-17.138-12.529h5.544
		c1.08,3.529,4.32,7.273,11.377,7.273c6.48,0,10.801-4.681,10.801-10.585c0-6.337-4.392-10.585-10.656-10.585
		c-4.248,0-7.777,1.943-9.434,3.816l-4.968-3.024l3.24-22.61h24.843v5.185h-19.946l-2.16,13.825c2.16-1.367,5.544-2.232,8.425-2.232
		C385.532,448.913,391.94,455.393,391.94,464.539z"/>
</g>
<g>
	<path fill="#E6E6E6" d="M278.195,474.571h-6.048c-1.009-3.097-3.169-6.409-8.569-6.409c-8.857,0-12.673,8.569-12.673,19.37
		c2.304-3.961,7.129-6.77,12.457-6.77c9,0,16.202,6.409,16.202,15.482c0,8.928-7.416,15.48-16.417,15.48
		c-11.593,0-17.642-8.784-17.642-24.41c0-15.049,6.049-24.41,18.074-24.41C272.722,462.905,276.971,468.881,278.195,474.571z
		 M252.128,495.884c0,6.337,4.825,10.585,11.017,10.585c6.048,0,11.017-4.248,11.017-10.225c0-5.904-4.969-10.369-11.017-10.369
		S252.128,489.979,252.128,495.884z"/>
</g>
<g>
</g>
<g>
</g>
<g>
</g>
<g>
</g>
<g>
</g>
</svg>
