<?xml version="1.0" encoding="utf-8"?>
<!-- Generator: Adobe Illustrator 16.0.0, SVG Export Plug-In . SVG Version: 6.00 Build 0)  -->
<!DOCTYPE svg PUBLIC "-//W3C//DTD SVG 1.1//EN" "http://www.w3.org/Graphics/SVG/1.1/DTD/svg11.dtd">
<svg version="1.1" id="Seconds_Index" xmlns="http://www.w3.org/2000/svg" xmlns:xlink="http://www.w3.org/1999/xlink" x="0px"
	 y="0px" width="283.465px" height="283.465px" viewBox="0 0 283.465 283.465" enable-background="new 0 0 283.465 283.465"
	 xml:space="preserve">
<circle fill="#1A1A1A" stroke="#000000" stroke-miterlimit="10" cx="141.732" cy="141.732" r="141.732"/>
<path fill="#E6E6E6" d="M212.049,251.559c1.562,2.706,0.631,6.169-2.081,7.734l0,0c-2.712,1.566-6.176,0.642-7.738-2.064
	l-9.933-17.203c-1.562-2.706-0.631-6.169,2.081-7.735l0,0c2.711-1.565,6.176-0.641,7.738,2.065L212.049,251.559z"/>
<path fill="#E6E6E6" d="M272.57,135.459c3.125,0,5.658,2.538,5.658,5.668l0,0c0,3.131-2.533,5.67-5.658,5.67h-19.865
	c-3.124-0.001-5.658-2.538-5.657-5.67l0,0c0-3.131,2.533-5.669,5.657-5.669L272.57,135.459z"/>
<path fill="#E6E6E6" d="M202.285,24.995c1.562-2.706,5.027-3.631,7.738-2.065l0,0c2.712,1.565,3.644,5.029,2.08,7.736l-9.932,17.203
	c-1.562,2.705-5.026,3.63-7.738,2.064l0,0c-2.711-1.566-3.645-5.029-2.08-7.735L202.285,24.995z"/>
<path fill="#E6E6E6" d="M71.479,30.632c-1.562-2.706-0.631-6.168,2.08-7.734l0,0c2.712-1.565,6.178-0.641,7.74,2.066l9.932,17.203
	c1.562,2.705,0.631,6.168-2.081,7.734l0,0c-2.712,1.565-6.177,0.642-7.739-2.065L71.479,30.632z"/>
<path fill="#E6E6E6" d="M10.957,146.733c-3.125-0.002-5.658-2.538-5.657-5.67l0,0c-0.001-3.13,2.532-5.67,5.658-5.669l19.864,0
	c3.123,0.001,5.657,2.539,5.656,5.67l0,0c0,3.13-2.531,5.67-5.657,5.669H10.957z"/>
<path fill="#E6E6E6" d="M81.242,257.197c-1.563,2.705-5.027,3.63-7.738,2.064l0,0c-2.711-1.565-3.645-5.029-2.081-7.735
	l9.933-17.204c1.562-2.703,5.025-3.629,7.738-2.063l0,0c2.711,1.566,3.645,5.027,2.08,7.735L81.242,257.197z"/>
<g>
	<path fill="#E6E6E6" d="M248.391,62.082V93.86h-3.601V65.538h-6.721v-3.457H248.391z"/>
</g>
<g>
	<path fill="#E6E6E6" d="M242.024,208.489h17.09v3.457h-21.361v-1.969c0-9.408,17.857-13.441,17.857-20.738
		c0-3.695-2.545-5.952-7.152-5.952c-4.225,0-7.057,1.968-7.537,5.521h-3.601c0.528-5.473,5.185-9.024,11.041-9.024
		c6.864,0,10.849,4.08,10.849,9.36C259.21,198.024,242.601,202.873,242.024,208.489z"/>
</g>
<g>
	<path fill="#E6E6E6" d="M152.63,267.739c0,5.665-4.8,9.505-10.8,9.505c-5.953,0-10.849-3.84-11.329-8.784h3.648
		c0.48,2.977,3.84,5.28,7.681,5.28c4.512,0,7.201-2.641,7.201-5.905c0-3.216-2.832-6.048-6.865-6.048h-3.648v-3.312h3.216
		c3.312,0,6.24-2.112,6.24-5.185c0-3.023-2.16-5.088-6.336-5.088c-3.888,0-6.336,2.064-6.769,4.512h-3.504
		c0.432-3.888,3.984-8.016,10.177-8.016c6.241,0,10.033,3.504,10.033,8.448c0,3.168-2.64,6.097-4.8,6.769
		C150.47,261.308,152.63,264.331,152.63,267.739z"/>
</g>
<g>
	<path fill="#E6E6E6" d="M47.12,200.616v3.217h-4.272v8.113h-3.601v-8.113H24.078v-3.504l13.345-20.162h5.424v20.449H47.12z
		 M39.247,200.616v-17.377l-11.809,17.377H39.247z"/>
</g>
<g>
	<path fill="#E6E6E6" d="M52.021,83.684c0,5.856-4.656,10.561-10.657,10.561c-8.161,0-10.753-5.088-11.425-8.353h3.696
		c0.72,2.352,2.88,4.849,7.585,4.849c4.32,0,7.2-3.121,7.2-7.057c0-4.225-2.928-7.057-7.104-7.057c-2.832,0-5.185,1.296-6.289,2.544
		l-3.312-2.016l2.16-15.073h16.562v3.457H37.14l-1.44,9.217c1.44-0.912,3.696-1.488,5.616-1.488
		C47.749,73.267,52.021,77.587,52.021,83.684z"/>
</g>
<g>
	<path fill="#E6E6E6" d="M152.39,12.045h-4.031c-0.672-2.064-2.113-4.272-5.713-4.272c-5.905,0-8.449,5.713-8.449,12.914
		c1.536-2.641,4.752-4.513,8.305-4.513c6,0,10.8,4.272,10.8,10.321c0,5.953-4.943,10.321-10.944,10.321
		c-7.729,0-11.761-5.856-11.761-16.273c0-10.033,4.033-16.273,12.049-16.273C148.742,4.269,151.574,8.253,152.39,12.045z
		 M135.013,26.255c0,4.224,3.216,7.057,7.345,7.057c4.032,0,7.345-2.833,7.345-6.817c0-3.936-3.312-6.913-7.345-6.913
		S135.013,22.318,135.013,26.255z"/>
</g>
<g>
</g>
<g>
</g>
<g>
</g>
<g>
</g>
<g>
</g>
</svg>
