<?xml version="1.0" encoding="utf-8"?>
<!-- Generator: Adobe Illustrator 15.1.0, SVG Export Plug-In . SVG Version: 6.00 Build 0)  -->
<!DOCTYPE svg PUBLIC "-//W3C//DTD SVG 1.1//EN" "http://www.w3.org/Graphics/SVG/1.1/DTD/svg11.dtd">
<svg version="1.1" xmlns="http://www.w3.org/2000/svg" xmlns:xlink="http://www.w3.org/1999/xlink" x="0px" y="0px" width="1000px"
	 height="1000px" viewBox="0 0 1000 1000" enable-background="new 0 0 1000 1000" xml:space="preserve">
<g id="Face">
	<circle cx="500" cy="500" r="500"/>
	<g>
		<path fill="#808285" d="M413.45,348.77c0,12.42-8.76,19.859-18.239,19.859h-16.739v-39.719h16.739
			C404.69,328.911,413.45,336.351,413.45,348.77z M408.95,348.77c0-8.52-5.459-15.6-13.919-15.6h-12.059v31.199h12.059
			C403.491,364.37,408.95,357.29,408.95,348.77z"/>
		<path fill="#808285" d="M441.831,359.99h4.92c-2.1,5.399-6.54,9.12-13.68,9.12c-9.18,0-15.179-6.9-15.179-15.479
			c0-8.58,5.7-15.479,14.879-15.479s14.879,6.899,14.879,15.479v1.8h-25.139c0.66,5.34,4.56,9.6,10.62,9.6
			C437.331,365.03,440.21,362.99,441.831,359.99z M422.571,351.23h20.399c-0.84-5.1-4.44-8.999-10.2-8.999
			S423.411,346.13,422.571,351.23z"/>
		<path fill="#808285" d="M475.37,359.209h4.859c-1.74,5.82-7.08,9.9-14.159,9.9c-9,0-14.759-6.9-14.759-15.479
			c0-8.58,5.76-15.479,14.759-15.479c7.08,0,12.419,4.08,14.159,9.899h-4.859c-1.38-3.42-4.44-5.819-8.7-5.819
			c-6.66,0-10.86,5.22-10.86,11.399s4.2,11.399,10.86,11.399C470.93,365.03,473.99,362.629,475.37,359.209z"/>
		<path fill="#808285" d="M490.49,327.711v5.879h-4.86v-5.879H490.49z M485.811,338.63h4.5v29.999h-4.5V338.63z"/>
		<path fill="#808285" d="M540.049,333.231h-13.859v35.398h-4.5v-35.398H507.83v-4.32h32.219V333.231z"/>
		<path fill="#808285" d="M549.169,327.711v5.879h-4.86v-5.879H549.169z M544.488,338.63h4.5v29.999h-4.5V338.63z"/>
		<path fill="#808285" d="M581.326,368.629h-4.499V350.63c0-5.04-3.24-8.399-7.44-8.399c-4.439,0-8.1,3.119-8.1,8.459v17.939h-4.5
			V338.63h4.5v4.56c1.38-2.399,4.26-5.039,9.12-5.039c3.96,0,7.619,2.22,9.539,6.06c1.2-2.04,4.38-6.06,10.32-6.06
			c5.76,0,11.099,4.8,11.099,12.359v18.119h-4.499V350.63c0-5.04-3.24-8.399-7.44-8.399c-4.439,0-8.1,3.119-8.1,8.459V368.629z"/>
		<path fill="#808285" d="M630.946,359.99h4.92c-2.1,5.399-6.539,9.12-13.679,9.12c-9.18,0-15.18-6.9-15.18-15.479
			c0-8.58,5.699-15.479,14.879-15.479s14.88,6.899,14.88,15.479v1.8h-25.139c0.659,5.34,4.56,9.6,10.619,9.6
			C626.447,365.03,629.327,362.99,630.946,359.99z M611.688,351.23h20.399c-0.84-5.1-4.44-8.999-10.2-8.999
			S612.527,346.13,611.688,351.23z"/>
	</g>
</g>
<g id="Index">
	<g>
		<path fill="#F1F2F2" d="M738.863,209.495h-7.5v-66.204h7.5V209.495z"/>
	</g>
	<g>
		<path fill="#F1F2F2" d="M872.321,409.495h-7.5v-66.204h7.5V409.495z"/>
		<path fill="#F1F2F2" d="M896.022,409.495h-7.501v-66.204h7.501V409.495z"/>
	</g>
	<g>
		<path fill="#F1F2F2" d="M860.473,656.708h-7.5v-66.204h7.5V656.708z"/>
		<path fill="#F1F2F2" d="M884.174,656.708h-7.501v-66.204h7.501V656.708z"/>
		<path fill="#F1F2F2" d="M907.872,656.708h-7.5v-66.204h7.5V656.708z"/>
	</g>
	<g>
		<path fill="#F1F2F2" d="M703.562,856.708h-7.5v-66.204h7.5V856.708z"/>
		<path fill="#F1F2F2" d="M774.165,790.504l-26.802,66.204h-8.601l-26.802-66.204h8.2l22.902,57.704l22.901-57.704H774.165z"/>
	</g>
	<g>
		<path fill="#F1F2F2" d="M531.102,866.896L504.3,933.1h-8.601l-26.802-66.204h8.201L500,924.6l22.901-57.704H531.102z"/>
	</g>
	<g>
		<path fill="#F1F2F2" d="M288.041,790.503l-26.802,66.204h-8.601l-26.802-66.204h8.201l22.901,57.704l22.902-57.704H288.041z"/>
		<path fill="#F1F2F2" d="M303.937,856.707h-7.5v-66.204h7.5V856.707z"/>
	</g>
	<g>
		<path fill="#F1F2F2" d="M130.882,590.503l-26.802,66.204H95.48l-26.802-66.204h8.201l22.901,57.704l22.902-57.704H130.882z"/>
		<path fill="#F1F2F2" d="M146.778,656.707h-7.5v-66.204h7.5V656.707z"/>
		<path fill="#F1F2F2" d="M170.478,656.707h-7.5v-66.204h7.5V656.707z"/>
	</g>
	<g>
		<path fill="#F1F2F2" d="M119.032,343.291L92.23,409.495H83.63l-26.802-66.204h8.201l22.901,57.703l22.902-57.703H119.032z"/>
		<path fill="#F1F2F2" d="M134.928,409.495h-7.5v-66.204h7.5V409.495z"/>
		<path fill="#F1F2F2" d="M158.628,409.495h-7.5v-66.204h7.5V409.495z"/>
		<path fill="#F1F2F2" d="M182.328,409.495h-7.5v-66.204h7.5V409.495z"/>
	</g>
	<g>
		<path fill="#F1F2F2" d="M233.786,209.495h-7.5v-66.204h7.5V209.495z"/>
		<path fill="#F1F2F2" d="M277.087,175.293l26.401,34.202h-9.5l-21.502-28.402l-21.401,28.402h-9.5l26.401-34.202l-24.602-32.002
			h9.5l19.601,26.001l19.701-26.001h9.501L277.087,175.293z"/>
	</g>
	<g>
		<path fill="#F1F2F2" d="M504.551,98.9l26.401,34.202h-9.5L499.951,104.7l-21.401,28.402h-9.5L495.45,98.9l-24.602-32.002h9.5
			l19.602,26.001l19.701-26.001h9.501L504.551,98.9z"/>
	</g>
</g>
</svg>
