<?xml version="1.0" encoding="utf-8"?>
<!-- Generator: Adobe Illustrator 15.1.0, SVG Export Plug-In . SVG Version: 6.00 Build 0)  -->
<!DOCTYPE svg PUBLIC "-//W3C//DTD SVG 1.1//EN" "http://www.w3.org/Graphics/SVG/1.1/DTD/svg11.dtd">
<svg version="1.1" id="MinuteHand" xmlns="http://www.w3.org/2000/svg" xmlns:xlink="http://www.w3.org/1999/xlink" x="0px" y="0px"
	 width="1000px" height="1000px" viewBox="0 0 1000 1000" enable-background="new 0 0 1000 1000" xml:space="preserve">
<g>
	<g>
		<path fill="#F1F2F2" d="M505,500c0-34.469,0-68.938,0-103.408c0-64.099,0-128.197,0-192.296c0-34.764,0-69.528,0-104.292
			c0-0.001,0-0.002,0-0.003c0-6.449-10-6.449-10,0c0,34.469,0,68.938,0,103.408c0,64.099,0,128.197,0,192.296
			c0,34.764,0,69.528,0,104.292c0,0.001,0,0.002,0,0.003C495,506.448,505,506.448,505,500L505,500z"/>
	</g>
</g>
</svg>
