<?xml version="1.0" encoding="utf-8"?>
<!-- Generator: Adobe Illustrator 18.1.0, SVG Export Plug-In . SVG Version: 6.00 Build 0)  -->
<!DOCTYPE svg PUBLIC "-//W3C//DTD SVG 1.1//EN" "http://www.w3.org/Graphics/SVG/1.1/DTD/svg11.dtd">
<svg version="1.1" id="Blad" xmlns="http://www.w3.org/2000/svg" xmlns:xlink="http://www.w3.org/1999/xlink" x="0px" y="0px"
	 viewBox="0 0 283.5 283.5" enable-background="new 0 0 283.5 283.5" xml:space="preserve">
<circle fill="#FFFFFF" cx="141.7" cy="141.7" r="141.7"/>
<rect x="137.5" y="9.9" fill="#1D1D1B" width="8.5" height="32.6"/>
<rect x="79.7" y="25.4" transform="matrix(0.866 -0.5 0.5 0.866 -9.5971 47.5749)" fill="#1D1D1B" width="8.5" height="32.6"/>
<rect x="37.4" y="67.7" transform="matrix(0.5 -0.866 0.866 0.5 -51.8756 78.0992)" fill="#1D1D1B" width="8.5" height="32.6"/>
<rect x="9.9" y="137.5" fill="#1D1D1B" width="32.6" height="8.5"/>
<rect x="37.4" y="183.2" transform="matrix(-0.5 -0.866 0.866 -0.5 -110.2117 335.3387)" fill="#1D1D1B" width="8.5" height="32.6"/>
<rect x="79.7" y="225.5" transform="matrix(-0.866 -0.5 0.5 -0.866 35.8221 493.1269)" fill="#1D1D1B" width="8.5" height="32.6"/>
<rect x="137.5" y="240.9" fill="#1D1D1B" width="8.5" height="32.6"/>
<rect x="195.2" y="225.5" transform="matrix(-0.866 0.5 -0.5 -0.866 493.13 351.3946)" fill="#1D1D1B" width="8.5" height="32.6"/>
<rect x="237.5" y="183.2" transform="matrix(-0.5 0.866 -0.866 -0.5 535.4086 89.8512)" fill="#1D1D1B" width="8.5" height="32.6"/>
<rect x="240.9" y="137.5" fill="#1D1D1B" width="32.6" height="8.5"/>
<rect x="237.5" y="67.7" transform="matrix(0.5 0.866 -0.866 0.5 193.6079 -167.3883)" fill="#1D1D1B" width="8.5" height="32.6"/>
<rect x="195.2" y="25.4" transform="matrix(0.866 0.5 -0.5 0.866 47.5741 -94.1573)" fill="#1D1D1B" width="8.5" height="32.6"/>
<rect x="126.6" y="10.6" transform="matrix(0.9945 -0.1045 0.1045 0.9945 -0.9244 13.5144)" fill="#1D1D1B" width="3.7" height="9.9"/>
<rect x="113.5" y="12.7" transform="matrix(0.9781 -0.2079 0.2079 0.9781 -1.1496 24.3703)" fill="#1D1D1B" width="3.7" height="9.9"/>
<rect x="100.7" y="16.1" transform="matrix(0.9511 -0.309 0.309 0.9511 -1.4989 32.717)" fill="#1D1D1B" width="3.7" height="9.9"/>
<rect x="88.3" y="20.9" transform="matrix(0.9135 -0.4067 0.4067 0.9135 -2.7206 38.8974)" fill="#1D1D1B" width="3.7" height="9.9"/>
<rect x="65.3" y="34.1" transform="matrix(0.809 -0.5878 0.5878 0.809 -10.1581 46.9521)" fill="#1D1D1B" width="3.7" height="9.9"/>
<rect x="55" y="42.5" transform="matrix(0.7431 -0.6691 0.6691 0.7431 -17.1559 50.2342)" fill="#1D1D1B" width="3.7" height="9.9"/>
<rect x="45.6" y="51.9" transform="matrix(0.6691 -0.7431 0.7431 0.6691 -26.5443 54.0845)" fill="#1D1D1B" width="3.7" height="9.9"/>
<rect x="37.3" y="62.2" transform="matrix(0.5878 -0.809 0.809 0.5878 -38.2204 59.3294)" fill="#1D1D1B" width="3.7" height="9.9"/>
<rect x="24" y="85.2" transform="matrix(0.4067 -0.9135 0.9135 0.4067 -67.0072 77.0904)" fill="#1D1D1B" width="3.7" height="9.9"/>
<rect x="19.3" y="97.6" transform="matrix(0.309 -0.9511 0.9511 0.309 -82.9389 90.9079)" fill="#1D1D1B" width="3.7" height="9.9"/>
<rect x="15.8" y="110.4" transform="matrix(0.2079 -0.9781 0.9781 0.2079 -98.8508 108.6431)" fill="#1D1D1B" width="3.7" height="9.9"/>
<rect x="13.7" y="123.5" transform="matrix(0.1045 -0.9945 0.9945 0.1045 -113.8164 130.5356)" fill="#1D1D1B" width="3.7" height="9.9"/>
<rect x="13.7" y="150" transform="matrix(-0.1045 -0.9945 0.9945 -0.1045 -136.9327 186.6837)" fill="#1D1D1B" width="3.7" height="9.9"/>
<rect x="15.8" y="163.1" transform="matrix(-0.2079 -0.9781 0.9781 -0.2079 -143.1027 220.3241)" fill="#1D1D1B" width="3.7" height="9.9"/>
<rect x="19.3" y="176" transform="matrix(-0.309 -0.9511 0.9511 -0.309 -144.4624 256.8983)" fill="#1D1D1B" width="3.7" height="9.9"/>
<rect x="24" y="188.4" transform="matrix(-0.4067 -0.9135 0.9135 -0.4067 -140.2448 295.5715)" fill="#1D1D1B" width="3.7" height="9.9"/>
<rect x="37.3" y="211.3" transform="matrix(-0.5878 -0.809 0.809 -0.5878 -112.8836 375.0618)" fill="#1D1D1B" width="3.7" height="9.9"/>
<rect x="45.6" y="221.6" transform="matrix(-0.6691 -0.7431 0.7431 -0.6691 -89.176 413.5122)" fill="#1D1D1B" width="3.7" height="9.9"/>
<rect x="55" y="231" transform="matrix(-0.7431 -0.6691 0.6691 -0.7431 -58.8072 449.4191)" fill="#1D1D1B" width="3.7" height="9.9"/>
<rect x="65.3" y="239.4" transform="matrix(-0.809 -0.5878 0.5878 -0.809 -22.1098 481.5206)" fill="#1D1D1B" width="3.7" height="9.9"/>
<rect x="88.3" y="252.7" transform="matrix(-0.9135 -0.4067 0.4067 -0.9135 67.7041 529.614)" fill="#1D1D1B" width="3.7" height="9.9"/>
<rect x="100.7" y="257.4" transform="matrix(-0.9511 -0.309 0.309 -0.9511 118.973 543.5829)" fill="#1D1D1B" width="3.7" height="9.9"/>
<rect x="113.5" y="260.8" transform="matrix(-0.9781 -0.2079 0.2079 -0.9781 172.9331 549.7883)" fill="#1D1D1B" width="3.7" height="9.9"/>
<rect x="126.6" y="262.9" transform="matrix(-0.9945 -0.1045 0.1045 -0.9945 228.2409 547.728)" fill="#1D1D1B" width="3.7" height="9.9"/>
<rect x="153.1" y="262.9" transform="matrix(-0.9945 0.1045 -0.1045 -0.9945 337.1354 518.0979)" fill="#1D1D1B" width="3.7" height="9.9"/>
<rect x="166.3" y="260.8" transform="matrix(-0.9781 0.2079 -0.2079 -0.9781 387.8017 490.8528)" fill="#1D1D1B" width="3.7" height="9.9"/>
<rect x="179.1" y="257.4" transform="matrix(-0.9511 0.309 -0.309 -0.9511 434.0824 455.9875)" fill="#1D1D1B" width="3.7" height="9.9"/>
<rect x="191.5" y="252.7" transform="matrix(-0.9135 0.4067 -0.4067 -0.9135 474.7182 414.3186)" fill="#1D1D1B" width="3.7" height="9.9"/>
<rect x="214.4" y="239.4" transform="matrix(-0.809 0.5878 -0.5878 -0.809 534.9021 314.9044)" fill="#1D1D1B" width="3.7" height="9.9"/>
<rect x="224.8" y="231" transform="matrix(-0.7431 0.6691 -0.6691 -0.7431 552.9269 259.7443)" fill="#1D1D1B" width="3.7" height="9.9"/>
<rect x="234.2" y="221.6" transform="matrix(-0.6691 0.7431 -0.7431 -0.6691 562.3154 202.857)" fill="#1D1D1B" width="3.7" height="9.9"/>
<rect x="242.5" y="211.3" transform="matrix(-0.5878 0.809 -0.809 -0.5878 562.9644 145.7342)" fill="#1D1D1B" width="3.7" height="9.9"/>
<rect x="255.8" y="188.4" transform="matrix(-0.4067 0.9135 -0.9135 -0.4067 539.0048 36.6137)" fill="#1D1D1B" width="3.7" height="9.9"/>
<rect x="260.5" y="176" transform="matrix(-0.309 0.9511 -0.9511 -0.309 515.5224 -12.6925)" fill="#1D1D1B" width="3.7" height="9.9"/>
<rect x="264" y="163.1" transform="matrix(-0.2079 0.9781 -0.9781 -0.2079 485.5029 -56.9461)" fill="#1D1D1B" width="3.7" height="9.9"/>
<rect x="266" y="150" transform="matrix(-0.1045 0.9945 -0.9945 -0.1045 450.0274 -95.228)" fill="#1D1D1B" width="3.7" height="9.9"/>
<rect x="266" y="123.5" transform="matrix(0.1045 0.9945 -0.9945 0.1045 367.6508 -151.3761)" fill="#1D1D1B" width="3.7" height="9.9"/>
<rect x="264" y="110.4" transform="matrix(0.2079 0.9781 -0.9781 0.2079 323.3798 -168.6272)" fill="#1D1D1B" width="3.7" height="9.9"/>
<rect x="260.5" y="97.6" transform="matrix(0.309 0.9511 -0.9511 0.309 278.8081 -178.6829)" fill="#1D1D1B" width="3.7" height="9.9"/>
<rect x="255.8" y="85.2" transform="matrix(0.4067 0.9135 -0.9135 0.4067 235.1764 -181.8674)" fill="#1D1D1B" width="3.7" height="9.9"/>
<rect x="242.5" y="62.2" transform="matrix(0.5878 0.809 -0.809 0.5878 155.0687 -169.9983)" fill="#1D1D1B" width="3.7" height="9.9"/>
<rect x="234.2" y="51.9" transform="matrix(0.6691 0.7431 -0.7431 0.6691 120.3341 -156.5707)" fill="#1D1D1B" width="3.7" height="9.9"/>
<rect x="224.8" y="42.5" transform="matrix(0.7431 0.6691 -0.6691 0.7431 89.9653 -139.4406)" fill="#1D1D1B" width="3.7" height="9.9"/>
<rect x="214.4" y="34.1" transform="matrix(0.809 0.5878 -0.5878 0.809 64.295 -119.6642)" fill="#1D1D1B" width="3.7" height="9.9"/>
<rect x="191.5" y="20.9" transform="matrix(0.9135 0.4067 -0.4067 0.9135 27.2274 -76.3981)" fill="#1D1D1B" width="3.7" height="9.9"/>
<rect x="179.1" y="16.1" transform="matrix(0.9511 0.309 -0.309 0.9511 15.3726 -54.8784)" fill="#1D1D1B" width="3.7" height="9.9"/>
<rect x="166.3" y="12.7" transform="matrix(0.9781 0.2079 -0.2079 0.9781 7.3439 -34.5653)" fill="#1D1D1B" width="3.7" height="9.9"/>
<rect x="153.1" y="10.6" transform="matrix(0.9945 0.1045 -0.1045 0.9945 2.4773 -16.1157)" fill="#1D1D1B" width="3.7" height="9.9"/>
<g>
	<path d="M109.5,80.8c-0.1-1.2-0.2-2.7-0.2-3.8h0c-0.3,1-0.8,2.1-1.3,3.3l-1.8,4.3h-1l-1.6-4.2c-0.5-1.2-0.9-2.4-1.2-3.4h0
		c0,1.1-0.1,2.6-0.2,3.9l-0.3,3.8h-1.3l0.7-8.8h1.7l1.7,4.2c0.4,1.1,0.8,2,1,3h0c0.3-0.9,0.6-1.9,1.1-3l1.8-4.2h1.7l0.6,8.8h-1.3
		L109.5,80.8z"/>
	<path d="M123.3,80.1c0,3-2.1,4.6-4.7,4.6c-2.7,0-4.6-1.8-4.6-4.5c0-2.8,2-4.6,4.7-4.6C121.5,75.7,123.3,77.5,123.3,80.1z
		 M115.4,80.3c0,1.9,1.2,3.6,3.2,3.6c2.1,0,3.3-1.7,3.3-3.6c0-1.7-1.1-3.6-3.2-3.6C116.5,76.6,115.4,78.3,115.4,80.3z"/>
	<path d="M126.6,84.6v-8.8h1.4l3.3,4.4c0.8,1,1.3,2,1.8,2.9l0,0c-0.1-1.2-0.2-2.2-0.2-3.6v-3.7h1.2v8.8h-1.3l-3.2-4.5
		c-0.7-1-1.4-2-1.9-2.9l0,0c0.1,1.1,0.1,2.2,0.1,3.6v3.8H126.6z"/>
	<path d="M138.1,75.9c0.8-0.1,1.7-0.2,2.8-0.2c1.9,0,3.2,0.4,4.1,1.1c0.9,0.7,1.4,1.7,1.4,3.2c0,1.4-0.5,2.6-1.5,3.4
		c-0.9,0.8-2.5,1.3-4.5,1.3c-0.9,0-1.7,0-2.4-0.1V75.9z M139.4,83.7c0.3,0.1,0.8,0.1,1.3,0.1c2.8,0,4.3-1.4,4.3-3.7
		c0-2.1-1.3-3.4-4.1-3.4c-0.7,0-1.2,0.1-1.5,0.1V83.7z"/>
	<path d="M151.2,81.9l-1.1,2.8h-1.4l3.5-8.8h1.6l3.5,8.8h-1.4l-1.1-2.8H151.2z M154.5,81l-1-2.5c-0.2-0.6-0.4-1.1-0.5-1.6h0
		c-0.2,0.5-0.3,1.1-0.5,1.6l-1,2.5H154.5z"/>
	<path d="M161.7,75.8v8.8h-1.3v-8.8H161.7z"/>
	<path d="M165.6,84.6v-8.8h1.4l3.3,4.4c0.8,1,1.3,2,1.8,2.9l0,0c-0.1-1.2-0.2-2.2-0.2-3.6v-3.7h1.2v8.8h-1.3l-3.2-4.5
		c-0.7-1-1.4-2-1.9-2.9l0,0c0.1,1.1,0.1,2.2,0.1,3.6v3.8H165.6z"/>
	<path d="M182.4,80.5h-4v3.2h4.4v1h-5.7v-8.8h5.5v1h-4.2v2.8h4V80.5z"/>
</g>
<g>
	<path d="M131.3,95.2c0.3,0.2,0.8,0.4,1.3,0.4c0.6,0,1-0.3,1-0.8c0-0.4-0.3-0.7-1-0.9c-0.9-0.3-1.5-0.8-1.5-1.6
		c0-0.9,0.8-1.6,1.9-1.6c0.6,0,1,0.1,1.3,0.3l-0.2,0.8c-0.2-0.1-0.6-0.3-1.1-0.3c-0.6,0-0.9,0.3-0.9,0.7c0,0.4,0.3,0.6,1.1,0.9
		c1,0.4,1.4,0.8,1.4,1.6c0,0.9-0.7,1.6-2.1,1.6c-0.6,0-1.2-0.2-1.5-0.3L131.3,95.2z"/>
	<path d="M135.9,90.9c0.3-0.1,0.9-0.1,1.5-0.1c0.7,0,1.2,0.1,1.6,0.4c0.3,0.2,0.6,0.6,0.6,1c0,0.5-0.3,1-0.9,1.2v0
		c0.6,0.1,1.1,0.6,1.1,1.4c0,0.5-0.2,0.9-0.5,1.1c-0.4,0.3-1,0.5-2,0.5c-0.6,0-1,0-1.2-0.1V90.9z M136.9,93h0.5
		c0.7,0,1.1-0.3,1.1-0.8c0-0.5-0.4-0.8-1-0.8c-0.3,0-0.5,0-0.6,0V93z M136.9,95.6c0.1,0,0.3,0,0.5,0c0.6,0,1.2-0.2,1.2-0.9
		c0-0.6-0.6-0.9-1.3-0.9h-0.5V95.6z"/>
	<path d="M141,90.9c0.3-0.1,0.9-0.1,1.5-0.1c0.7,0,1.2,0.1,1.6,0.4c0.3,0.2,0.6,0.6,0.6,1c0,0.5-0.3,1-0.9,1.2v0
		c0.6,0.1,1.1,0.6,1.1,1.4c0,0.5-0.2,0.9-0.5,1.1c-0.4,0.3-1,0.5-2,0.5c-0.6,0-1,0-1.2-0.1V90.9z M142,93h0.5c0.7,0,1.1-0.3,1.1-0.8
		c0-0.5-0.4-0.8-1-0.8c-0.3,0-0.5,0-0.6,0V93z M142,95.6c0.1,0,0.3,0,0.5,0c0.6,0,1.2-0.2,1.2-0.9c0-0.6-0.6-0.9-1.3-0.9H142V95.6z"
		/>
	<path d="M152,96.1c-0.2,0.1-0.8,0.2-1.4,0.2c-1.7,0-2.8-1.1-2.8-2.8c0-1.8,1.3-2.9,2.9-2.9c0.7,0,1.1,0.1,1.3,0.2l-0.2,0.8
		c-0.3-0.1-0.6-0.2-1.1-0.2c-1.1,0-1.9,0.7-1.9,2c0,1.2,0.7,2,1.9,2c0.4,0,0.8-0.1,1.1-0.2L152,96.1z"/>
	<path d="M153.1,90.8h3.2v0.8h-2.2v1.5h2V94h-2v2.3h-1V90.8z"/>
	<path d="M157.6,90.8h3.2v0.8h-2.2v1.5h2V94h-2v2.3h-1V90.8z"/>
	<path d="M164.1,90.8h3.2v0.8h-2.2v1.5h2V94h-2v2.3h-1V90.8z"/>
	<path d="M168.6,90.8h3.2v0.8h-2.2v1.5h2V94h-2v2.3h-1V90.8z"/>
	<path d="M173.1,95.2c0.3,0.2,0.8,0.4,1.3,0.4c0.6,0,1-0.3,1-0.8c0-0.4-0.3-0.7-1-0.9c-0.9-0.3-1.5-0.8-1.5-1.6
		c0-0.9,0.8-1.6,1.9-1.6c0.6,0,1,0.1,1.3,0.3l-0.2,0.8c-0.2-0.1-0.6-0.3-1.1-0.3c-0.6,0-0.9,0.3-0.9,0.7c0,0.4,0.3,0.6,1.1,0.9
		c1,0.4,1.4,0.8,1.4,1.6c0,0.9-0.7,1.6-2.1,1.6c-0.6,0-1.2-0.2-1.5-0.3L173.1,95.2z"/>
</g>
<rect x="107" y="90" fill="#E30613" width="21.3" height="7.1"/>
<polygon fill="#FFFFFF" points="120.4,95.7 118.8,94 121.4,94 121.4,95.7 122.4,95.7 122.4,94 125,94 123.4,95.7 124.8,95.7 
	126.9,93.5 124.8,91.4 123.4,91.4 125,93 122.4,93 122.4,91.4 121.4,91.4 121.4,93 118.8,93 120.4,91.4 119,91.4 116.9,93.5 
	119,95.7 "/>
</svg>
