<?xml version="1.0" encoding="utf-8"?>
<!-- Generator: Adobe Illustrator 18.1.0, SVG Export Plug-In . SVG Version: 6.00 Build 0)  -->
<!DOCTYPE svg PUBLIC "-//W3C//DTD SVG 1.1//EN" "http://www.w3.org/Graphics/SVG/1.1/DTD/svg11.dtd">
<svg version="1.1" id="Layer_1" xmlns="http://www.w3.org/2000/svg" xmlns:xlink="http://www.w3.org/1999/xlink" x="0px" y="0px"
	 viewBox="0 0 28.4 28.4" enable-background="new 0 0 28.4 28.4" xml:space="preserve">
<g>
	<path fill="#F39200" d="M14.2,3.8L14.2,3.8c0.9,0,1.8,0.1,2.7,0.4c5.5,1.5,8.8,7.2,7.3,12.7c-1.2,4.5-5.3,7.7-10,7.7
		c-0.9,0-1.8-0.1-2.7-0.4C6,22.7,2.7,17,4.2,11.5C5.4,7,9.5,3.8,14.2,3.8 M14.2,2.8c-5,0-9.6,3.3-10.9,8.4c-1.6,6,2,12.3,8,13.9
		c1,0.3,2,0.4,2.9,0.4c5,0,9.6-3.3,10.9-8.4c1.6-6-2-12.3-8-13.9C16.1,3,15.1,2.8,14.2,2.8L14.2,2.8z"/>
</g>
<g>
	<path fill="#F39200" d="M14.5,11.4c0.1,0,0.2,0,0.4,0v0c0.8,0.2,1.2,1,1,1.7l-2.2,8.2c-0.2,0.6-0.7,1.1-1.4,1.1c-0.1,0-0.2,0-0.4,0
		v0c-0.8-0.2-1.2-1-1-1.7l2.2-8.2C13.3,11.8,13.9,11.4,14.5,11.4 M14.5,10.4L14.5,10.4c-1.1,0-2.1,0.7-2.3,1.8L10,20.4
		c-0.2,0.6-0.1,1.3,0.2,1.8c0.3,0.6,0.8,1,1.5,1.1c0.2,0.1,0.4,0.1,0.6,0.1c1.1,0,2.1-0.7,2.3-1.8l2.2-8.2c0.2-0.6,0.1-1.3-0.2-1.8
		c-0.3-0.6-0.8-1-1.5-1.1C15,10.4,14.8,10.4,14.5,10.4L14.5,10.4z"/>
</g>
<g>
	<path fill="#F39200" d="M16,5.9c0.1,0,0.2,0,0.4,0c0.8,0.2,1.2,1,1,1.7c-0.2,0.6-0.7,1.1-1.4,1.1c-0.1,0-0.2,0-0.4,0
		c-0.8-0.2-1.2-1-1-1.7C14.8,6.3,15.4,5.9,16,5.9 M16,4.9L16,4.9c-1.1,0-2.1,0.7-2.3,1.8c-0.3,1.3,0.4,2.6,1.7,3
		c0.2,0.1,0.4,0.1,0.6,0.1c1.1,0,2.1-0.7,2.3-1.8c0.3-1.3-0.4-2.6-1.7-3C16.4,4.9,16.2,4.9,16,4.9L16,4.9z"/>
</g>
</svg>
