<?xml version="1.0" encoding="utf-8"?>
<!-- Generator: Adobe Illustrator 18.1.0, SVG Export Plug-In . SVG Version: 6.00 Build 0)  -->
<!DOCTYPE svg PUBLIC "-//W3C//DTD SVG 1.1//EN" "http://www.w3.org/Graphics/SVG/1.1/DTD/svg11.dtd">
<svg version="1.1" id="Layer_1" xmlns="http://www.w3.org/2000/svg" xmlns:xlink="http://www.w3.org/1999/xlink" x="0px" y="0px"
	 viewBox="0 0 28.4 28.4" enable-background="new 0 0 28.4 28.4" xml:space="preserve">
<path fill="none" stroke="#F39200" stroke-linecap="round" stroke-miterlimit="10" d="M24.4,11c0,6.3-5.1,11.3-11.3,11.3
	c-5,0-9.1-4.1-9.1-9.1C4,9.3,7.2,6,11.2,6c3.2,0,5.8,2.6,5.8,5.8c0,2.6-2.1,4.6-4.6,4.6c-2.1,0-3.7-1.7-3.7-3.7c0-1.6,1.3-3,3-3
	c1.3,0,2.4,1.1,2.4,2.4c0,1.1-0.9,1.9-1.9,1.9c-0.8,0-1.5-0.7-1.5-1.5"/>
</svg>
