<?xml version="1.0" encoding="utf-8"?>
<!-- Generator: Adobe Illustrator 18.1.0, SVG Export Plug-In . SVG Version: 6.00 Build 0)  -->
<!DOCTYPE svg PUBLIC "-//W3C//DTD SVG 1.1//EN" "http://www.w3.org/Graphics/SVG/1.1/DTD/svg11.dtd">
<svg version="1.1" id="Layer_1" xmlns="http://www.w3.org/2000/svg" xmlns:xlink="http://www.w3.org/1999/xlink" x="0px" y="0px"
	 viewBox="0 0 28.4 28.4" enable-background="new 0 0 28.4 28.4" xml:space="preserve">
<g>
	<path fill="#F39200" d="M10.8,2.8c0.4,0,0.7,0.3,0.7,0.7v7c0,0.6,0.4,1,1,1s1-0.4,1-1c0-0.4,0.3-0.7,0.7-0.7c0.4,0,0.7,0.3,0.7,0.7
		v1c0,0.6,0.4,1,1,1s1-0.4,1-1c0-0.4,0.3-0.7,0.7-0.7c0.4,0,0.7,0.3,0.7,0.7v1c0,0.6,0.4,1,1,1c0.6,0,1-0.4,1-1
		c0-0.4,0.3-0.7,0.7-0.7c0.4,0,0.7,0.3,0.7,0.7v5.9c0,3.4-3.4,6.1-7.5,6.1c-4.1,0-7.5-2.7-7.5-6.1v-4.9c0-0.4,0.3-0.7,0.7-0.7
		c0.4,0,0.7,0.3,0.7,0.7c0,0.6,0.4,1,1,1c0.6,0,1-0.4,1-1v-10C10.1,3.1,10.4,2.8,10.8,2.8 M10.8,1.8c-0.9,0-1.7,0.8-1.7,1.7v10
		c0-0.9-0.8-1.7-1.7-1.7c-0.9,0-1.7,0.8-1.7,1.7v4.9c0,3.9,3.8,7.1,8.5,7.1s8.5-3.2,8.5-7.1v-5.9c0-0.9-0.8-1.7-1.7-1.7
		c-0.9,0-1.7,0.8-1.7,1.7v-1c0-0.9-0.8-1.7-1.7-1.7c-0.9,0-1.7,0.8-1.7,1.7v-1c0-0.9-0.8-1.7-1.7-1.7c-0.9,0-1.7,0.8-1.7,1.7v-7
		C12.5,2.6,11.7,1.8,10.8,1.8L10.8,1.8z"/>
</g>
</svg>
