<?xml version="1.0" encoding="utf-8"?>
<!-- Generator: Adobe Illustrator 18.1.0, SVG Export Plug-In . SVG Version: 6.00 Build 0)  -->
<!DOCTYPE svg PUBLIC "-//W3C//DTD SVG 1.1//EN" "http://www.w3.org/Graphics/SVG/1.1/DTD/svg11.dtd">
<svg version="1.1" id="Layer_1" xmlns="http://www.w3.org/2000/svg" xmlns:xlink="http://www.w3.org/1999/xlink" x="0px" y="0px"
	 viewBox="0 0 28.4 28.4" enable-background="new 0 0 28.4 28.4" xml:space="preserve">
<g>
	<path fill="#F39200" d="M14.2,3.8c5.7,0,10.3,4.6,10.3,10.3s-4.6,10.3-10.3,10.3S3.8,19.9,3.8,14.2S8.5,3.8,14.2,3.8 M14.2,2.8
		C7.9,2.8,2.8,7.9,2.8,14.2s5.1,11.3,11.3,11.3s11.3-5.1,11.3-11.3S20.4,2.8,14.2,2.8L14.2,2.8z"/>
</g>
<g>
	<path fill="#F39200" d="M14.2,7.1c3.9,0,7.1,3.2,7.1,7.1s-3.2,7.1-7.1,7.1s-7.1-3.2-7.1-7.1S10.3,7.1,14.2,7.1 M14.2,6.1
		c-4.5,0-8.1,3.6-8.1,8.1s3.6,8.1,8.1,8.1s8.1-3.6,8.1-8.1S18.6,6.1,14.2,6.1L14.2,6.1z"/>
</g>
</svg>
