<?xml version="1.0" encoding="utf-8"?>
<!-- Generator: Adobe Illustrator 15.1.0, SVG Export Plug-In . SVG Version: 6.00 Build 0)  -->
<!DOCTYPE svg PUBLIC "-//W3C//DTD SVG 1.1//EN" "http://www.w3.org/Graphics/SVG/1.1/DTD/svg11.dtd">
<svg version="1.1" id="Layer_1" xmlns="http://www.w3.org/2000/svg" xmlns:xlink="http://www.w3.org/1999/xlink" x="0px" y="0px"
	 width="210px" height="60px" viewBox="0 0 210 60" enable-background="new 0 0 210 60" xml:space="preserve">
<g>
	<path fill="#CCCCCC" d="M8.269,15.027L25,26.142V30L5,16.814v-3.57L25,0v3.917L8.269,15.027z"/>
</g>
<g>
	<path fill="#69BD45" d="M8.269,45.027L25,56.142V60L5,46.814v-3.57L25,30v3.918L8.269,45.027z"/>
</g>
<g>
	<path fill="#CCCCCC" d="M51.731,14.973L35,3.858V0l20,13.186v3.57L35,30v-3.918L51.731,14.973z"/>
</g>
<g>
	<path fill="#69BD45" d="M51.731,44.973L35,33.858V30l20,13.186v3.57L35,60v-3.918L51.731,44.973z"/>
</g>
<g>
	<g id="g3102" transform="matrix(25.879499,0,0,-25.879499,68.792883,63.950723)">
		<path id="path3104" fill="#CCCCCC" d="M-0.096,2.108h-0.086l-0.01-0.032h0.104L-0.096,2.108z"/>
	</g>
	<g id="g3106" transform="matrix(25.879499,0,0,-25.879499,206.02441,61.020954)">
		<path id="path3108" fill="#CCCCCC" d="M-4.62,2.012h-0.115l-0.02-0.049h0.154L-4.62,2.012z"/>
	</g>
	<g>
		<path fill="#CCCCCC" d="M74.318,12.819l-3.685,3.916l1.406,0.001c0.684-1.16,1.695-2.089,2.899-2.66L74.318,12.819z"/>
		<path fill="#CCCCCC" d="M72.68,11.559l-6.846,2.235l4.963-3.231h-8.369c-1.342,0-2.429,1.117-2.429,2.491l0.008,3.674l9.365,0.006
			L72.68,11.559z"/>
		<path fill="#CCCCCC" d="M87.554,10.562h-7.658l2.914,2.828l-6.341-2.447l0.442,2.565c0.242-0.028,0.485-0.051,0.735-0.051
			c2.391,0,4.462,1.331,5.606,3.293l6.739,0.007v-3.705C89.991,11.68,88.9,10.562,87.554,10.562z"/>
	</g>
	<polygon fill="#CCCCCC" points="76,0 75.828,6.599 81.417,2.5 77.232,7.777 85.291,6.834 78.101,9.387 81.483,12.67 76.292,10.667 
		77.643,18.5 74.53,12.203 68.291,18.834 73.189,11.17 67.583,13 72.833,9.583 65.69,7.491 72.591,7.777 70.042,4.75 73.995,6.599 	
		"/>
	<path fill="#CCCCCC" d="M80.844,17.43c-0.764-0.942-1.908-1.558-3.196-1.558c-0.11,0-0.218,0.01-0.326,0.019l0.796,4.619
		l-2.115-4.281c-0.605,0.271-1.139,0.681-1.556,1.192c-0.14,0.171-0.27,0.347-0.38,0.537c-0.384,0.646-0.616,1.394-0.616,2.204
		c0,2.37,1.877,4.289,4.196,4.289c2.307,0,4.185-1.919,4.185-4.289c0-0.81-0.228-1.558-0.616-2.204
		C81.114,17.772,80.985,17.597,80.844,17.43z"/>
	<path fill="#CCCCCC" d="M83.6,17.412c0.373,0.84,0.593,1.767,0.593,2.752c0,3.702-2.931,6.707-6.545,6.707
		c-3.618,0-6.548-3.005-6.548-6.707c0-0.985,0.217-1.912,0.593-2.756H70l-3.302,3.509l2.243-3.509h-8.939v10.104
		c0,1.37,1.083,2.487,2.429,2.487h25.125c1.345,0,2.436-1.117,2.436-2.487L90,17.412H83.6z"/>
	<g>
		<polygon fill="#CCCCCC" points="79.558,10.234 79.955,10.234 79.299,9.161 78.679,9.381 		"/>
		<polygon fill="#CCCCCC" points="70.6,9.138 69.868,10.234 71.301,10.234 72.246,9.62 		"/>
	</g>
</g>
<g>
	<g id="g3102_1_" transform="matrix(25.879499,0,0,-25.879499,68.792883,63.950723)">
		<path id="path3104_1_" fill="#69BD45" d="M-0.096,0.949h-0.086l-0.01-0.032h0.104L-0.096,0.949z"/>
	</g>
	<g id="g3106_1_" transform="matrix(25.879499,0,0,-25.879499,206.02441,61.020954)">
		<path id="path3108_1_" fill="#69BD45" d="M-4.62,0.853h-0.115l-0.02-0.049h0.154L-4.62,0.853z"/>
	</g>
	<g>
		<path fill="#69BD45" d="M74.318,42.819l-3.685,3.915l1.406,0.002c0.684-1.16,1.695-2.09,2.899-2.66L74.318,42.819z"/>
		<path fill="#69BD45" d="M72.68,41.559l-6.846,2.235l4.963-3.231h-8.369c-1.342,0-2.429,1.117-2.429,2.491l0.008,3.675l9.365,0.006
			L72.68,41.559z"/>
		<path fill="#69BD45" d="M87.555,40.562h-7.658l2.913,2.828l-6.341-2.447l0.442,2.566c0.241-0.029,0.485-0.051,0.735-0.051
			c2.391,0,4.461,1.33,5.605,3.293l6.738,0.007v-3.705C89.99,41.68,88.9,40.562,87.555,40.562z"/>
	</g>
	<polygon fill="#69BD45" points="76,30 75.828,36.599 81.417,32.5 77.232,37.777 85.291,36.834 78.102,39.387 81.483,42.67 
		76.292,40.667 77.643,48.5 74.53,42.203 68.291,48.834 73.189,41.17 67.583,43 72.833,39.583 65.69,37.491 72.591,37.777 
		70.042,34.75 73.995,36.599 	"/>
	<path fill="#69BD45" d="M80.844,47.43c-0.764-0.941-1.907-1.557-3.195-1.557c-0.111,0-0.219,0.01-0.326,0.019l0.797,4.618
		l-2.115-4.28c-0.606,0.271-1.139,0.681-1.556,1.192c-0.14,0.172-0.27,0.347-0.38,0.537c-0.384,0.646-0.616,1.395-0.616,2.203
		c0,2.371,1.877,4.289,4.196,4.289c2.307,0,4.184-1.918,4.184-4.289c0-0.809-0.228-1.557-0.615-2.203
		C81.114,47.772,80.984,47.598,80.844,47.43z"/>
	<path fill="#69BD45" d="M83.6,47.412c0.373,0.84,0.594,1.767,0.594,2.752c0,3.701-2.932,6.707-6.545,6.707
		c-3.619,0-6.549-3.006-6.549-6.707c0-0.985,0.217-1.912,0.593-2.756H70l-3.302,3.509l2.243-3.509h-8.939v10.104
		c0,1.37,1.083,2.487,2.429,2.487h25.126c1.345,0,2.436-1.117,2.436-2.487L90,47.412H83.6z"/>
	<g>
		<polygon fill="#69BD45" points="79.559,40.234 79.955,40.234 79.299,39.16 78.679,39.381 		"/>
		<polygon fill="#69BD45" points="70.6,39.138 69.868,40.234 71.301,40.234 72.246,39.619 		"/>
	</g>
</g>
<g>
	<g>
		<g>
			<path fill="#CCCCCC" d="M92.248,22.51C90.777,20.242,90,17.624,90,14.939c0-4.555,2.287-8.883,6.117-11.576
				c2.565-1.804,5.606-2.757,8.794-2.757c3.989,0,7.608,1.375,10.193,3.873l-1.409,1.348c-2.208-2.134-5.328-3.309-8.784-3.309
				c-2.763,0-5.398,0.826-7.621,2.389c-3.32,2.334-5.302,6.085-5.302,10.033c0,2.327,0.673,4.596,1.946,6.56L92.248,22.51z"/>
		</g>
	</g>
	<polygon fill="#CCCCCC" points="109.037,6.854 109.043,4.809 114.058,4.822 114.072,0 116.199,0.007 116.179,6.873 	"/>
	<g>
		<g>
			<path fill="#CCCCCC" d="M105.089,29.394c-3.989,0-7.609-1.375-10.193-3.873l1.41-1.348c2.208,2.134,5.328,3.309,8.784,3.309
				c7.126,0,12.923-5.572,12.923-12.422c0-2.327-0.673-4.596-1.946-6.56l1.687-1.011c1.471,2.268,2.248,4.886,2.248,7.571
				C120,22.964,113.31,29.394,105.089,29.394z"/>
		</g>
	</g>
	<polygon fill="#CCCCCC" points="100.962,23.146 100.957,25.191 95.941,25.177 95.927,30 93.801,29.993 93.82,23.127 	"/>
	<polygon fill="#CCCCCC" points="100.929,4.867 102.849,4.372 105.936,15.447 104.016,15.942 	"/>
	<polygon fill="#CCCCCC" points="104.561,14.083 111.904,15.328 111.559,17.209 104.216,15.965 	"/>
</g>
<g>
	<g>
		<g>
			<path fill="#69BD45" d="M92.248,52.51C90.777,50.242,90,47.624,90,44.938c0-4.555,2.287-8.883,6.117-11.575
				c2.564-1.804,5.605-2.757,8.794-2.757c3.989,0,7.608,1.375,10.193,3.873l-1.409,1.348c-2.208-2.134-5.328-3.31-8.784-3.31
				c-2.763,0-5.398,0.826-7.621,2.389c-3.319,2.335-5.302,6.086-5.302,10.033c0,2.328,0.673,4.596,1.946,6.561L92.248,52.51z"/>
		</g>
	</g>
	<polygon fill="#69BD45" points="109.037,36.854 109.043,34.809 114.058,34.822 114.072,30 116.199,30.007 116.179,36.872 	"/>
	<g>
		<g>
			<path fill="#69BD45" d="M105.089,59.395c-3.989,0-7.609-1.376-10.193-3.873l1.409-1.348c2.209,2.134,5.328,3.309,8.784,3.309
				c7.126,0,12.923-5.572,12.923-12.421c0-2.328-0.673-4.596-1.946-6.561l1.687-1.011c1.471,2.269,2.248,4.886,2.248,7.571
				C120,52.964,113.31,59.395,105.089,59.395z"/>
		</g>
	</g>
	<polygon fill="#69BD45" points="100.963,53.146 100.957,55.191 95.941,55.178 95.928,60 93.801,59.992 93.82,53.127 	"/>
	<polygon fill="#69BD45" points="100.93,34.866 102.85,34.372 105.936,45.447 104.016,45.942 	"/>
	<polygon fill="#69BD45" points="104.561,44.083 111.904,45.327 111.559,47.21 104.217,45.966 	"/>
</g>
<g>
	<path fill="#CCCCCC" d="M135.629,7.107c1.231-1.041,2.567-1.431,3.962-0.538c1.345,0.863,3.037-1.686,5.35-5.172
		c0.638-0.989,1.668-1.734,2.867-1.242c2.075,0.693,2.8,2.625,1.642,4.473c-1.036,1.651-2.775,4.31-3.832,5.95
		c-0.213,0.326-0.423,0.654-0.642,0.996c2.135,0.875,2.896,1.864,2.67,3.413c-0.043,0.314-0.11,0.658-0.281,0.917
		c-2.22,3.377-4.243,6.908-6.75,10.07c-3.673,4.635-10.616,5.298-15.655,1.83c-4.875-3.348-6.451-9.944-3.396-14.917
		c2.928-4.765,1.374-2.209,4.429-6.901c1.045-1.608,2.982-1.835,4.461-0.611c0.216,0.181,0.414,0.384,0.621,0.577
		C133.377,5.628,134.023,5.485,135.629,7.107z M142.049,13.347c0.009,0.003,0.014,0.008,0.02,0.011
		c0.784-1.215,1.565-2.431,2.348-3.646c1.038-1.61,2.74-4.249,3.778-5.859c0.504-0.783,0.466-1.509-0.312-2.086
		c-0.698-0.515-1.559-0.268-2.157,0.572c-0.146,0.206-0.275,0.423-0.412,0.635c-2.322,3.575-5.31,8.183-7.638,11.754
		c-0.196,0.299-0.391,0.646-0.682,0.821c-0.217,0.129-0.645,0.108-0.866-0.022c-0.161-0.093-0.228-0.505-0.169-0.736
		c0.072-0.3,0.303-0.564,0.48-0.838c2.727-4.217-0.522,0.857,2.207-3.357c0.138-0.212,0.277-0.421,0.408-0.639
		c0.543-0.906,0.436-1.725-0.28-2.184c-0.72-0.464-1.557-0.225-2.153,0.621c-0.167,0.237-0.317,0.483-0.474,0.727
		c-2.712,4.183,0.558-0.92-2.165,3.257c-0.316,0.489-0.625,1.265-1.4,0.775c-0.812-0.509-0.123-1.085,0.177-1.555
		c1.413-2.226-1.791,2.794-0.358,0.58c1.021-1.577,0.722-1.084,1.725-2.672c0.532-0.839,0.395-1.618-0.308-2.08
		c-0.748-0.488-1.545-0.276-2.15,0.58c-0.146,0.207,1.051-1.642,0.912-1.43c-2.317,3.579,0.016-0.07-2.31,3.502
		c-0.215,0.33-0.437,0.696-0.755,0.9c-0.205,0.133-0.646,0.098-0.867-0.037c-0.158-0.095-0.216-0.509-0.156-0.742
		c0.078-0.3,0.309-0.566,0.482-0.838c1.749-2.698-1.143,1.835,0.593-0.872c0.574-0.896,0.446-1.726-0.263-2.195
		c-0.714-0.471-1.593-0.252-2.152,0.611c-3.006,4.639-1.438,2.009-4.309,6.724c-2.723,4.471-1.294,10.032,3.145,13.135
		c4.134,2.89,10.211,2.33,13.421-1.646c2.488-3.084,4.467-6.564,6.624-9.896c0.426-0.657,0.196-1.345-0.478-1.785
		c-0.727-0.472-1.399-0.315-1.951,0.316c-0.19,0.218-0.331,0.473-0.489,0.716c-1.71,2.637-3.416,5.277-5.129,7.912
		c-0.313,0.479-0.632,1.12-1.355,0.651c-0.67-0.438-0.196-0.949,0.086-1.395C138.492,18.873,140.271,16.111,142.049,13.347z"/>
</g>
<g>
	<path fill="#69BD45" d="M135.629,37.107c1.231-1.041,2.567-1.431,3.962-0.538c1.345,0.863,3.037-1.686,5.35-5.172
		c0.638-0.989,1.668-1.734,2.867-1.242c2.075,0.693,2.8,2.626,1.642,4.474c-1.036,1.65-2.775,4.31-3.832,5.949
		c-0.213,0.326-0.423,0.654-0.642,0.996c2.135,0.874,2.896,1.863,2.67,3.412c-0.043,0.314-0.11,0.658-0.281,0.917
		c-2.22,3.378-4.243,6.909-6.75,10.071c-3.673,4.635-10.616,5.297-15.655,1.83c-4.875-3.348-6.451-9.945-3.396-14.918
		c2.928-4.764,1.374-2.209,4.429-6.9c1.045-1.607,2.982-1.836,4.461-0.611c0.216,0.182,0.414,0.385,0.621,0.577
		C133.377,35.628,134.023,35.485,135.629,37.107z M142.049,43.347c0.009,0.004,0.014,0.008,0.02,0.012
		c0.784-1.215,1.565-2.432,2.348-3.646c1.038-1.61,2.74-4.249,3.778-5.858c0.504-0.783,0.466-1.51-0.312-2.087
		c-0.698-0.515-1.559-0.268-2.157,0.572c-0.146,0.206-0.275,0.423-0.412,0.635c-2.322,3.575-5.31,8.183-7.638,11.754
		c-0.196,0.3-0.391,0.646-0.682,0.821c-0.217,0.129-0.645,0.107-0.866-0.022c-0.161-0.093-0.228-0.505-0.169-0.735
		c0.072-0.301,0.303-0.564,0.48-0.838c2.727-4.217-0.522,0.856,2.207-3.357c0.138-0.213,0.277-0.422,0.408-0.639
		c0.543-0.906,0.436-1.725-0.28-2.184c-0.72-0.465-1.557-0.225-2.153,0.62c-0.167,0.237-0.317,0.483-0.474,0.728
		c-2.712,4.183,0.558-0.92-2.165,3.257c-0.316,0.489-0.625,1.265-1.4,0.774c-0.812-0.508-0.123-1.084,0.177-1.555
		c1.413-2.227-1.791,2.795-0.358,0.58c1.021-1.577,0.722-1.085,1.725-2.673c0.532-0.839,0.395-1.618-0.308-2.079
		c-0.748-0.488-1.545-0.276-2.15,0.58c-0.146,0.207,1.051-1.643,0.912-1.431c-2.317,3.579,0.016-0.069-2.31,3.503
		c-0.215,0.33-0.437,0.695-0.755,0.899c-0.205,0.134-0.646,0.099-0.867-0.036c-0.158-0.096-0.216-0.51-0.156-0.742
		c0.078-0.3,0.309-0.566,0.482-0.838c1.749-2.697-1.143,1.836,0.593-0.871c0.574-0.896,0.446-1.727-0.263-2.195
		c-0.714-0.471-1.593-0.252-2.152,0.611c-3.006,4.639-1.438,2.008-4.309,6.724c-2.723,4.472-1.294,10.032,3.145,13.136
		c4.134,2.889,10.211,2.33,13.421-1.646c2.488-3.084,4.467-6.564,6.624-9.896c0.426-0.657,0.196-1.345-0.478-1.784
		c-0.727-0.473-1.399-0.315-1.951,0.315c-0.19,0.218-0.331,0.474-0.489,0.716c-1.71,2.639-3.416,5.277-5.129,7.912
		c-0.313,0.479-0.632,1.121-1.355,0.652c-0.67-0.438-0.196-0.949,0.086-1.395C138.492,48.874,140.271,46.112,142.049,43.347z"/>
</g>
<path fill="#CCCCCC" d="M195,0c-8.284,0-15,6.716-15,15s6.716,15,15,15s15-6.716,15-15S203.284,0,195,0z M197.436,22.208
	l0.654,0.278c-0.636,1.45-2.342,3.534-3.398,4.147c-2.255,1.229-4.663,0.515-4.691-1.336c-0.013-0.811,0.366-1.901,0.366-1.901
	l3.019-9.629c0.131-0.609-0.116-1.352-1.932-1.414l0.132-0.699c0.831-0.171,6.152-1.022,7.205-0.935l-4.024,12.631
	C194.085,26.194,196.122,24.507,197.436,22.208z M197.411,7.935c-1.431,0-2.591-1.16-2.591-2.59c0-1.431,1.16-2.59,2.591-2.59
	c1.43,0,2.589,1.16,2.589,2.59C200,6.775,198.841,7.935,197.411,7.935z"/>
<path fill="#69BD45" d="M195,30c-8.284,0-15,6.716-15,15s6.716,15,15,15s15-6.716,15-15S203.284,30,195,30z M197.436,52.209
	l0.654,0.277c-0.636,1.45-2.342,3.535-3.398,4.147c-2.255,1.229-4.663,0.515-4.691-1.337c-0.013-0.811,0.366-1.9,0.366-1.9
	l3.019-9.629c0.131-0.609-0.116-1.353-1.932-1.414l0.132-0.699c0.831-0.172,6.152-1.022,7.205-0.936l-4.024,12.631
	C194.085,56.194,196.122,54.508,197.436,52.209z M197.411,37.936c-1.431,0-2.591-1.16-2.591-2.59c0-1.432,1.16-2.591,2.591-2.591
	c1.43,0,2.589,1.159,2.589,2.591C200,36.775,198.841,37.936,197.411,37.936z"/>
<g id="g2991" transform="matrix(1,0,0,-1,121.49153,1270.2373)">
</g>
<g id="fullscreen_x5F_exit_x5F_alt">
	<g>
		<polygon fill="#CCCCCC" points="152.586,5.414 159.172,12 162,9.172 155.414,2.586 158,0 150,0 150,8 		"/>
		<polygon fill="#CCCCCC" points="174.547,27.371 172,30 179.961,29.957 180,22 177.375,24.543 170.828,18 168,20.828 		"/>
		<polygon fill="#CCCCCC" points="168,9.172 170.828,12 177.414,5.414 180,8 180,0 172,0 174.586,2.586 		"/>
		<polygon fill="#CCCCCC" points="158.031,30 155.437,27.405 162,20.838 159.164,18 152.598,24.566 150,21.971 150,30 		"/>
	</g>
</g>
<g id="fullscreen_x5F_exit_x5F_alt_1_">
	<g>
		<polygon fill="#69BD45" points="152.586,35.414 159.172,42 162,39.172 155.414,32.586 158,30 150,30 150,38 		"/>
		<polygon fill="#69BD45" points="174.547,57.371 172,60 179.961,59.957 180,52 177.375,54.543 170.828,48 168,50.828 		"/>
		<polygon fill="#69BD45" points="168,39.172 170.828,42 177.414,35.414 180,38 180,30 172,30 174.586,32.586 		"/>
		<polygon fill="#69BD45" points="158.031,60 155.437,57.404 162,50.838 159.164,48 152.598,54.566 150,51.971 150,60 		"/>
	</g>
</g>
</svg>
