<?xml version="1.0" encoding="utf-8"?>
<!-- Generator: Adobe Illustrator 18.1.0, SVG Export Plug-In . SVG Version: 6.00 Build 0)  -->
<!DOCTYPE svg PUBLIC "-//W3C//DTD SVG 1.1//EN" "http://www.w3.org/Graphics/SVG/1.1/DTD/svg11.dtd">
<svg version="1.1" id="Layer_1" xmlns="http://www.w3.org/2000/svg" xmlns:xlink="http://www.w3.org/1999/xlink" x="0px" y="0px"
	 viewBox="0 0 28.4 28.4" enable-background="new 0 0 28.4 28.4" xml:space="preserve">
<g>
	<path fill="#F39200" d="M8.5,4.2L8.5,4.2c0.4,0,0.8,0.1,1.2,0.4l11.4,9.5L9.7,23.7c-0.3,0.3-0.7,0.4-1.2,0.4
		c-0.9,0-1.9-0.7-1.9-1.8V6.1C6.7,4.9,7.6,4.2,8.5,4.2 M8.5,3.2c-1.5,0-2.9,1.2-2.9,2.8v16.2c0,1.7,1.4,2.8,2.9,2.8
		c0.6,0,1.3-0.2,1.8-0.7l12.4-10.3L10.3,3.9C9.8,3.4,9.1,3.2,8.5,3.2L8.5,3.2z"/>
</g>
</svg>
