<?xml version="1.0" encoding="utf-8"?>
<!-- Generator: Adobe Illustrator 18.1.0, SVG Export Plug-In . SVG Version: 6.00 Build 0)  -->
<!DOCTYPE svg PUBLIC "-//W3C//DTD SVG 1.1//EN" "http://www.w3.org/Graphics/SVG/1.1/DTD/svg11.dtd">
<svg version="1.1" id="Layer_1" xmlns="http://www.w3.org/2000/svg" xmlns:xlink="http://www.w3.org/1999/xlink" x="0px" y="0px"
	 viewBox="0 0 28.4 28.4" enable-background="new 0 0 28.4 28.4" xml:space="preserve">
<g>
	<path fill="#F39200" d="M14.2,3.8c0.3,0,0.7,0,1,0.1l-0.4,2.2c-0.2,0-0.4,0-0.6,0s-0.4,0-0.6,0l-0.4-2.2
		C13.5,3.9,13.8,3.8,14.2,3.8 M14.2,2.8c-0.8,0-1.5,0.1-2.2,0.2l0.8,4.2c0.4-0.1,0.9-0.1,1.4-0.1s0.9,0,1.4,0.1l0.8-4.2
		C15.7,2.9,14.9,2.8,14.2,2.8L14.2,2.8z"/>
</g>
<g>
	<path fill="#F39200" d="M7.6,6.2l1.3,1.9C8.7,8.2,8.6,8.3,8.5,8.5C8.3,8.6,8.2,8.7,8.1,8.9L6.2,7.6c0.2-0.3,0.5-0.5,0.7-0.8
		C7.1,6.6,7.4,6.4,7.6,6.2 M7.9,4.7C7.3,5.1,6.7,5.6,6.2,6.2s-1,1.1-1.4,1.7l3.5,2.4c0.3-0.4,0.5-0.7,0.9-1.1
		c0.3-0.3,0.7-0.6,1.1-0.9L7.9,4.7L7.9,4.7z"/>
</g>
<g>
	<path fill="#F39200" d="M3.9,13.1l2.2,0.4c0,0.2,0,0.4,0,0.6s0,0.4,0,0.6l-2.2,0.4c0-0.3-0.1-0.7-0.1-1S3.9,13.5,3.9,13.1
		 M3.1,11.9c-0.1,0.7-0.2,1.5-0.2,2.2s0.1,1.5,0.2,2.2l4.2-0.8c-0.1-0.4-0.1-0.9-0.1-1.4s0-0.9,0.1-1.4L3.1,11.9L3.1,11.9z"/>
</g>
<g>
	<path fill="#F39200" d="M8.1,19.5c0.1,0.2,0.3,0.3,0.4,0.4c0.1,0.1,0.3,0.3,0.4,0.4l-1.3,1.9c-0.3-0.2-0.5-0.5-0.8-0.7
		c-0.2-0.2-0.5-0.5-0.7-0.8L8.1,19.5 M8.3,18.1l-3.5,2.4c0.4,0.6,0.9,1.2,1.4,1.7c0.5,0.5,1.1,1,1.7,1.4l2.4-3.5
		c-0.4-0.3-0.7-0.5-1.1-0.9C8.8,18.8,8.5,18.5,8.3,18.1L8.3,18.1z"/>
</g>
<g>
	<path fill="#F39200" d="M14.8,22.2l0.4,2.2c-0.3,0-0.7,0.1-1,0.1s-0.7,0-1-0.1l0.4-2.2c0.2,0,0.4,0,0.6,0S14.6,22.3,14.8,22.2
		 M15.6,21.1c-0.4,0.1-0.9,0.1-1.4,0.1s-0.9,0-1.4-0.1l-0.8,4.2c0.7,0.1,1.5,0.2,2.2,0.2s1.5-0.1,2.2-0.2L15.6,21.1L15.6,21.1z"/>
</g>
<g>
	<path fill="#F39200" d="M20.3,19.5l1.9,1.3c-0.2,0.3-0.5,0.5-0.7,0.8c-0.2,0.2-0.5,0.5-0.8,0.7l-1.3-1.9c0.2-0.1,0.3-0.3,0.4-0.4
		C20,19.8,20.2,19.6,20.3,19.5 M20.1,18.1c-0.3,0.4-0.5,0.7-0.9,1.1c-0.3,0.3-0.7,0.6-1.1,0.9l2.4,3.5c0.6-0.4,1.2-0.9,1.7-1.4
		c0.5-0.5,1-1.1,1.4-1.7L20.1,18.1L20.1,18.1z"/>
</g>
<g>
	<path fill="#F39200" d="M24.5,13.1c0,0.3,0.1,0.7,0.1,1s0,0.7-0.1,1l-2.2-0.4c0-0.2,0-0.4,0-0.6s0-0.4,0-0.6L24.5,13.1 M25.3,11.9
		l-4.2,0.8c0.1,0.4,0.1,0.9,0.1,1.4s0,0.9-0.1,1.4l4.2,0.8c0.1-0.7,0.2-1.5,0.2-2.2S25.4,12.7,25.3,11.9L25.3,11.9z"/>
</g>
<g>
	<path fill="#F39200" d="M20.7,6.2c0.3,0.2,0.5,0.5,0.8,0.7c0.2,0.2,0.5,0.5,0.7,0.8l-1.9,1.3c-0.1-0.2-0.3-0.3-0.4-0.4
		c-0.1-0.1-0.3-0.3-0.4-0.4L20.7,6.2 M20.5,4.7l-2.4,3.5c0.4,0.3,0.7,0.5,1.1,0.9c0.3,0.3,0.6,0.7,0.9,1.1l3.5-2.4
		c-0.4-0.6-0.9-1.2-1.4-1.7C21.7,5.6,21.1,5.1,20.5,4.7L20.5,4.7z"/>
</g>
<line fill="none" x1="14.2" y1="14.2" x2="0" y2="14.2"/>
</svg>
