<?xml version="1.0" encoding="utf-8"?>
<!-- Generator: Adobe Illustrator 18.1.0, SVG Export Plug-In . SVG Version: 6.00 Build 0)  -->
<!DOCTYPE svg PUBLIC "-//W3C//DTD SVG 1.1//EN" "http://www.w3.org/Graphics/SVG/1.1/DTD/svg11.dtd">
<svg version="1.1" id="Layer_1" xmlns="http://www.w3.org/2000/svg" xmlns:xlink="http://www.w3.org/1999/xlink" x="0px" y="0px"
	 viewBox="0 0 28.4 28.4" enable-background="new 0 0 28.4 28.4" xml:space="preserve">
<g>
	<path fill="#F39200" d="M8.5,4.2c1,0,1.8,0.8,1.8,1.8v16.2c0,1-0.8,1.8-1.8,1.8s-1.8-0.8-1.8-1.8V6.1C6.7,5,7.5,4.2,8.5,4.2
		 M8.5,3.2c-1.6,0-2.8,1.3-2.8,2.8v16.2c0,1.6,1.3,2.8,2.8,2.8s2.8-1.3,2.8-2.8V6.1C11.3,4.5,10.1,3.2,8.5,3.2L8.5,3.2z"/>
</g>
<g>
	<path fill="#F39200" d="M19.8,4.2c1,0,1.8,0.8,1.8,1.8v16.2c0,1-0.8,1.8-1.8,1.8S18,23.3,18,22.3V6.1C18,5,18.8,4.2,19.8,4.2
		 M19.8,3.2c-1.6,0-2.8,1.3-2.8,2.8v16.2c0,1.6,1.3,2.8,2.8,2.8s2.8-1.3,2.8-2.8V6.1C22.7,4.5,21.4,3.2,19.8,3.2L19.8,3.2z"/>
</g>
</svg>
